<?xml version="1.0" encoding="UTF-8"?>
<!DOCTYPE svg PUBLIC "-//W3C//DTD SVG 1.1//EN" "http://www.w3.org/Graphics/SVG/1.1/DTD/svg11.dtd">
<svg xmlns="http://www.w3.org/2000/svg" width="100%" height="100%">
  <style type="text/css">svg {
    font-family: "Helvetica Neue", Helvetica, Arial, sans-serif;
}

/** INTERACTIONS **/
.component-panel {
    fill: url(#steel_gradient);
    stroke: #dcdcdc;
    stroke-width: 1px;
}
.component-title {
    font-family: Arial, sans-serif;
    font-weight:bold;
}
.button {
    fill: url(#steel_gradient);
    stroke: #dcdcdc;
    stroke-width: 1px;
    pointer-events: all;
    cursor: pointer;
}
.button:hover {
    fill: url(#steel_gradient_hover);
}
.button-content {
    fill: #666666;
    pointer-events: none;
    font-family: Arial, sans-serif;
    font-weight:bold;
}

.show_hover {
    opacity: 0.0;
}

.show_hover:hover {
    opacity: 1.0;
}

.room-stroke {
    fill: rgba(255, 255, 255, 0);
    stroke: #4f4f4f;
    stroke-width: 5px;
}

.room-floor {
    fill:  url(#steel_gradient); /*rgba(245, 245, 220, 0.72);*/
    opacity: 0.8;
    stroke-width: 3px;
}

.room-name {
    font-weight: bold;
    text-decoration: underline;
}

.dimension {
    font-weight: lighter;
}

.wall {
    fill: darkgrey;
}

.window {
    fill: none;
    stroke: blue;
}

.window path {
    opacity: 0.3;
}

.window:hover path {
    opacity: 1.0
}

.door {
    fill: white;
    stroke: maroon;
}

.door path {
    opacity: 0.3;
}

.door:hover path {
    opacity: 1.0
}
</style>
  <script type="text/ecmascript">function floors_interaction(floor_id)
{
    var floors = document.getElementsByClassName('floor');
    console.log(floors);
    [].forEach.call(floors, function(floor) {
       if(floor.id == floor_id) {
           floor.style.display = 'inherit';
       }
        else {
           floor.style.display = 'none';
       }
    });
}
</script>
  <defs><linearGradient id="steel_gradient" x1="50%" y1="100%" x2="50%" y2="0%">
  <stop offset="0%" style="stop-color:rgb(255,255,255);stop-opacity:1"/>
  <stop offset="5%" style="stop-color:rgb(255,255,255);stop-opacity:1"/>
  <stop offset="100%" style="stop-color:rgb(246,246,246);stop-opacity:1"/>
</linearGradient>
<linearGradient id="steel_gradient_hover" x1="50%" y1="100%" x2="50%" y2="0%">
  <stop offset="0%" style="stop-color:rgb(246,246,246);stop-opacity:1"/>
  <stop offset="5%" style="stop-color:rgb(246,246,246);stop-opacity:1"/>
  <stop offset="100%" style="stop-color:rgb(255,255,255);stop-opacity:1"/>
</linearGradient>
</defs>
  <g id="root_component"/>
  <g id="root_content" transform="translate(140)">
    <g id="floor_apartment" class="floor">
      <polygon points="608.0,65.0 976.0,65.0 976.0,635.0 608.0,635.0" class="room-stroke"/>
      <g id="room_dining_room" class="show_hover">
        <polygon points="608.0,65.0 976.0,65.0 976.0,635.0 608.0,635.0" class="room-floor"/>
        <text x="792.0" y="350.0" class="room-name" text-anchor="middle">dining room</text>
        <text x="792.0" y="370.0" text-anchor="middle">20.98 m²</text>
        <g id="segment_2647400">
          <line x1="608.0" y1="65.0" x2="608.0" y2="30.0" stroke="black"/>
          <line x1="976.0" y1="65.0" x2="976.0" y2="30.0" stroke="black"/>
          <line x1="608.0" y1="30.0" x2="976.0" y2="30.0" stroke="black"/>
          <text x="792.0" y="15.0" text-anchor="middle" transform="rotate(0.0 792.0, 15.0)" class="dimension">368cm</text>
        </g>
        <g id="segment_2618160">
          <line x1="976.0" y1="65.0" x2="1011.0" y2="65.0" stroke="black"/>
          <line x1="976.0" y1="635.0" x2="1011.0" y2="635.0" stroke="black"/>
          <line x1="1011.0" y1="65.0" x2="1011.0" y2="635.0" stroke="black"/>
          <text x="1026.0" y="350.0" text-anchor="middle" transform="rotate(90.0 1026.0, 350.0)" class="dimension">570cm</text>
        </g>
        <g id="segment_2614220">
          <line x1="976.0" y1="635.0" x2="976.0" y2="670.0" stroke="black"/>
          <line x1="608.0" y1="635.0" x2="608.0" y2="670.0" stroke="black"/>
          <line x1="976.0" y1="670.0" x2="608.0" y2="670.0" stroke="black"/>
          <text x="792.0" y="685.0" text-anchor="middle" transform="rotate(0.0 792.0, 685.0)" class="dimension">368cm</text>
        </g>
        <g id="segment_25098480">
          <line x1="608.0" y1="635.0" x2="583.0" y2="635.0" stroke="black"/>
          <line x1="608.0" y1="65.0" x2="583.0" y2="65.0" stroke="black"/>
          <line x1="583.0" y1="635.0" x2="583.0" y2="65.0" stroke="black"/>
          <text x="568.0" y="350.0" text-anchor="middle" transform="rotate(90.0 568.0, 350.0)" class="dimension">570cm</text>
        </g>
      </g>
      <polygon points="603.0,65.0 268.0,65.0 268.0,247.0 385.0,247.0 385.0,183.0 515.0,183.0 515.0,247.0 603.0,247.0" class="room-stroke"/>
      <g id="room_hall" class="show_hover">
        <polygon points="603.0,65.0 268.0,65.0 268.0,247.0 385.0,247.0 385.0,183.0 515.0,183.0 515.0,247.0 603.0,247.0" class="room-floor"/>
        <text x="435.5" y="156.0" class="room-name" text-anchor="middle">hall</text>
        <text x="435.5" y="176.0" text-anchor="middle">5.27 m²</text>
        <g id="segment_2700920">
          <line x1="603.0" y1="65.0" x2="603.0" y2="30.0" stroke="black"/>
          <line x1="268.0" y1="65.0" x2="268.0" y2="30.0" stroke="black"/>
          <line x1="603.0" y1="30.0" x2="268.0" y2="30.0" stroke="black"/>
          <text x="435.5" y="15.0" text-anchor="middle" transform="rotate(0.0 435.5, 15.0)" class="dimension">335cm</text>
        </g>
        <g id="segment_24823820">
          <line x1="268.0" y1="65.0" x2="243.0" y2="65.0" stroke="black"/>
          <line x1="268.0" y1="247.0" x2="243.0" y2="247.0" stroke="black"/>
          <line x1="243.0" y1="65.0" x2="243.0" y2="247.0" stroke="black"/>
          <text x="228.0" y="156.0" text-anchor="middle" transform="rotate(90.0 228.0, 156.0)" class="dimension">182cm</text>
        </g>
        <g id="segment_23515540">
          <line x1="268.0" y1="247.0" x2="268.0" y2="272.0" stroke="black"/>
          <line x1="385.0" y1="247.0" x2="385.0" y2="272.0" stroke="black"/>
          <line x1="268.0" y1="272.0" x2="385.0" y2="272.0" stroke="black"/>
          <text x="326.5" y="287.0" text-anchor="middle" transform="rotate(0.0 326.5, 287.0)" class="dimension">117cm</text>
        </g>
        <g id="segment_2662760">
          <line x1="385.0" y1="247.0" x2="410.0" y2="247.0" stroke="black"/>
          <line x1="385.0" y1="183.0" x2="410.0" y2="183.0" stroke="black"/>
          <line x1="410.0" y1="247.0" x2="410.0" y2="183.0" stroke="black"/>
          <text x="425.0" y="215.0" text-anchor="middle" transform="rotate(90.0 425.0, 215.0)" class="dimension">64cm</text>
        </g>
        <g id="segment_2631000">
          <line x1="385.0" y1="183.0" x2="385.0" y2="208.0" stroke="black"/>
          <line x1="515.0" y1="183.0" x2="515.0" y2="208.0" stroke="black"/>
          <line x1="385.0" y1="208.0" x2="515.0" y2="208.0" stroke="black"/>
          <text x="450.0" y="223.0" text-anchor="middle" transform="rotate(0.0 450.0, 223.0)" class="dimension">130cm</text>
        </g>
        <g id="segment_2569620">
          <line x1="515.0" y1="183.0" x2="490.0" y2="183.0" stroke="black"/>
          <line x1="515.0" y1="247.0" x2="490.0" y2="247.0" stroke="black"/>
          <line x1="490.0" y1="183.0" x2="490.0" y2="247.0" stroke="black"/>
          <text x="475.0" y="215.0" text-anchor="middle" transform="rotate(90.0 475.0, 215.0)" class="dimension">64cm</text>
        </g>
        <g id="segment_24811100">
          <line x1="515.0" y1="247.0" x2="515.0" y2="272.0" stroke="black"/>
          <line x1="603.0" y1="247.0" x2="603.0" y2="272.0" stroke="black"/>
          <line x1="515.0" y1="272.0" x2="603.0" y2="272.0" stroke="black"/>
          <text x="559.0" y="287.0" text-anchor="middle" transform="rotate(0.0 559.0, 287.0)" class="dimension">88cm</text>
        </g>
        <g id="segment_25080840">
          <line x1="603.0" y1="247.0" x2="628.0" y2="247.0" stroke="black"/>
          <line x1="603.0" y1="65.0" x2="628.0" y2="65.0" stroke="black"/>
          <line x1="628.0" y1="247.0" x2="628.0" y2="65.0" stroke="black"/>
          <text x="643.0" y="156.0" text-anchor="middle" transform="rotate(90.0 643.0, 156.0)" class="dimension">182cm</text>
        </g>
      </g>
      <polygon points="263.0,65.0 263.0,150.0 119.0,150.0 119.0,65.0" class="room-stroke"/>
      <g id="room_toilets" class="show_hover">
        <polygon points="263.0,65.0 263.0,150.0 119.0,150.0 119.0,65.0" class="room-floor"/>
        <text x="191.0" y="107.5" class="room-name" text-anchor="middle">toilets</text>
        <text x="191.0" y="127.5" text-anchor="middle">1.22 m²</text>
        <g id="segment_24811420">
          <line x1="263.0" y1="65.0" x2="288.0" y2="65.0" stroke="black"/>
          <line x1="263.0" y1="150.0" x2="288.0" y2="150.0" stroke="black"/>
          <line x1="288.0" y1="65.0" x2="288.0" y2="150.0" stroke="black"/>
          <text x="303.0" y="107.5" text-anchor="middle" transform="rotate(90.0 303.0, 107.5)" class="dimension">85cm</text>
        </g>
        <g id="segment_24720540">
          <line x1="263.0" y1="150.0" x2="263.0" y2="175.0" stroke="black"/>
          <line x1="119.0" y1="150.0" x2="119.0" y2="175.0" stroke="black"/>
          <line x1="263.0" y1="175.0" x2="119.0" y2="175.0" stroke="black"/>
          <text x="191.0" y="190.0" text-anchor="middle" transform="rotate(0.0 191.0, 190.0)" class="dimension">144cm</text>
        </g>
        <g id="segment_23516060">
          <line x1="119.0" y1="150.0" x2="94.0" y2="150.0" stroke="black"/>
          <line x1="119.0" y1="65.0" x2="94.0" y2="65.0" stroke="black"/>
          <line x1="94.0" y1="150.0" x2="94.0" y2="65.0" stroke="black"/>
          <text x="79.0" y="107.5" text-anchor="middle" transform="rotate(90.0 79.0, 107.5)" class="dimension">85cm</text>
        </g>
        <g id="segment_23048740">
          <line x1="119.0" y1="65.0" x2="119.0" y2="30.0" stroke="black"/>
          <line x1="263.0" y1="65.0" x2="263.0" y2="30.0" stroke="black"/>
          <line x1="119.0" y1="30.0" x2="263.0" y2="30.0" stroke="black"/>
          <text x="191.0" y="15.0" text-anchor="middle" transform="rotate(0.0 191.0, 15.0)" class="dimension">144cm</text>
        </g>
      </g>
      <polygon points="114.0,65.0 114.0,150.0 65.0,150.0 65.0,65.0" class="room-stroke"/>
      <g id="room_cmv" class="show_hover">
        <polygon points="114.0,65.0 114.0,150.0 65.0,150.0 65.0,65.0" class="room-floor"/>
        <text x="89.5" y="107.5" class="room-name" text-anchor="middle">CMV</text>
        <text x="89.5" y="127.5" text-anchor="middle">0.42 m²</text>
        <g id="segment_23475980">
          <line x1="114.0" y1="65.0" x2="139.0" y2="65.0" stroke="black"/>
          <line x1="114.0" y1="150.0" x2="139.0" y2="150.0" stroke="black"/>
          <line x1="139.0" y1="65.0" x2="139.0" y2="150.0" stroke="black"/>
          <text x="154.0" y="107.5" text-anchor="middle" transform="rotate(90.0 154.0, 107.5)" class="dimension">85cm</text>
        </g>
        <g id="segment_21806060">
          <line x1="114.0" y1="150.0" x2="114.0" y2="175.0" stroke="black"/>
          <line x1="65.0" y1="150.0" x2="65.0" y2="175.0" stroke="black"/>
          <line x1="114.0" y1="175.0" x2="65.0" y2="175.0" stroke="black"/>
          <text x="89.5" y="190.0" text-anchor="middle" transform="rotate(0.0 89.5, 190.0)" class="dimension">49cm</text>
        </g>
        <g id="segment_23640480">
          <line x1="65.0" y1="150.0" x2="30.0" y2="150.0" stroke="black"/>
          <line x1="65.0" y1="65.0" x2="30.0" y2="65.0" stroke="black"/>
          <line x1="30.0" y1="150.0" x2="30.0" y2="65.0" stroke="black"/>
          <text x="15.0" y="107.5" text-anchor="middle" transform="rotate(90.0 15.0, 107.5)" class="dimension">85cm</text>
        </g>
        <g id="segment_23584480">
          <line x1="65.0" y1="65.0" x2="65.0" y2="30.0" stroke="black"/>
          <line x1="114.0" y1="65.0" x2="114.0" y2="30.0" stroke="black"/>
          <line x1="65.0" y1="30.0" x2="114.0" y2="30.0" stroke="black"/>
          <text x="89.5" y="15.0" text-anchor="middle" transform="rotate(0.0 89.5, 15.0)" class="dimension">49cm</text>
        </g>
      </g>
      <polygon points="263.0,155.0 65.0,155.0 65.0,349.0 243.0,349.0 243.0,280.0 263.0,280.0" class="room-stroke"/>
      <g id="room_bathroom" class="show_hover">
        <polygon points="263.0,155.0 65.0,155.0 65.0,349.0 243.0,349.0 243.0,280.0 263.0,280.0" class="room-floor"/>
        <text x="164.0" y="252.0" class="room-name" text-anchor="middle">bathroom</text>
        <text x="164.0" y="272.0" text-anchor="middle">3.7 m²</text>
        <g id="segment_24677140">
          <line x1="263.0" y1="155.0" x2="263.0" y2="130.0" stroke="black"/>
          <line x1="65.0" y1="155.0" x2="65.0" y2="130.0" stroke="black"/>
          <line x1="263.0" y1="130.0" x2="65.0" y2="130.0" stroke="black"/>
          <text x="164.0" y="115.0" text-anchor="middle" transform="rotate(0.0 164.0, 115.0)" class="dimension">198cm</text>
        </g>
        <g id="segment_24928480">
          <line x1="65.0" y1="155.0" x2="30.0" y2="155.0" stroke="black"/>
          <line x1="65.0" y1="349.0" x2="30.0" y2="349.0" stroke="black"/>
          <line x1="30.0" y1="155.0" x2="30.0" y2="349.0" stroke="black"/>
          <text x="15.0" y="252.0" text-anchor="middle" transform="rotate(90.0 15.0, 252.0)" class="dimension">194cm</text>
        </g>
        <g id="segment_24929620">
          <line x1="65.0" y1="349.0" x2="65.0" y2="374.0" stroke="black"/>
          <line x1="243.0" y1="349.0" x2="243.0" y2="374.0" stroke="black"/>
          <line x1="65.0" y1="374.0" x2="243.0" y2="374.0" stroke="black"/>
          <text x="154.0" y="389.0" text-anchor="middle" transform="rotate(0.0 154.0, 389.0)" class="dimension">178cm</text>
        </g>
        <g id="segment_24811780">
          <line x1="243.0" y1="349.0" x2="268.0" y2="349.0" stroke="black"/>
          <line x1="243.0" y1="280.0" x2="268.0" y2="280.0" stroke="black"/>
          <line x1="268.0" y1="349.0" x2="268.0" y2="280.0" stroke="black"/>
          <text x="283.0" y="314.5" text-anchor="middle" transform="rotate(90.0 283.0, 314.5)" class="dimension">69cm</text>
        </g>
        <g id="segment_24751920">
          <line x1="243.0" y1="280.0" x2="243.0" y2="305.0" stroke="black"/>
          <line x1="263.0" y1="280.0" x2="263.0" y2="305.0" stroke="black"/>
          <line x1="243.0" y1="305.0" x2="263.0" y2="305.0" stroke="black"/>
          <text x="253.0" y="320.0" text-anchor="middle" transform="rotate(0.0 253.0, 320.0)" class="dimension">20cm</text>
        </g>
        <g id="segment_23502560">
          <line x1="263.0" y1="280.0" x2="288.0" y2="280.0" stroke="black"/>
          <line x1="263.0" y1="155.0" x2="288.0" y2="155.0" stroke="black"/>
          <line x1="288.0" y1="280.0" x2="288.0" y2="155.0" stroke="black"/>
          <text x="303.0" y="217.5" text-anchor="middle" transform="rotate(90.0 303.0, 217.5)" class="dimension">125cm</text>
        </g>
      </g>
      <polygon points="65.0,354.0 248.0,354.0 248.0,285.0 268.0,285.0 268.0,252.0 348.0,252.0 348.0,635.0 65.0,635.0" class="room-stroke"/>
      <g id="room_bedroom" class="show_hover">
        <polygon points="65.0,354.0 248.0,354.0 248.0,285.0 268.0,285.0 268.0,252.0 348.0,252.0 348.0,635.0 65.0,635.0" class="room-floor"/>
        <text x="206.5" y="443.5" class="room-name" text-anchor="middle">bedroom</text>
        <text x="206.5" y="463.5" text-anchor="middle">8.91 m²</text>
        <g id="segment_24243560">
          <line x1="65.0" y1="354.0" x2="65.0" y2="329.0" stroke="black"/>
          <line x1="248.0" y1="354.0" x2="248.0" y2="329.0" stroke="black"/>
          <line x1="65.0" y1="329.0" x2="248.0" y2="329.0" stroke="black"/>
          <text x="156.5" y="314.0" text-anchor="middle" transform="rotate(0.0 156.5, 314.0)" class="dimension">183cm</text>
        </g>
        <g id="segment_24805540">
          <line x1="248.0" y1="354.0" x2="223.0" y2="354.0" stroke="black"/>
          <line x1="248.0" y1="285.0" x2="223.0" y2="285.0" stroke="black"/>
          <line x1="223.0" y1="354.0" x2="223.0" y2="285.0" stroke="black"/>
          <text x="208.0" y="319.5" text-anchor="middle" transform="rotate(90.0 208.0, 319.5)" class="dimension">69cm</text>
        </g>
        <g id="segment_24718140">
          <line x1="248.0" y1="285.0" x2="248.0" y2="260.0" stroke="black"/>
          <line x1="268.0" y1="285.0" x2="268.0" y2="260.0" stroke="black"/>
          <line x1="248.0" y1="260.0" x2="268.0" y2="260.0" stroke="black"/>
          <text x="258.0" y="245.0" text-anchor="middle" transform="rotate(0.0 258.0, 245.0)" class="dimension">20cm</text>
        </g>
        <g id="segment_23446840">
          <line x1="268.0" y1="285.0" x2="243.0" y2="285.0" stroke="black"/>
          <line x1="268.0" y1="252.0" x2="243.0" y2="252.0" stroke="black"/>
          <line x1="243.0" y1="285.0" x2="243.0" y2="252.0" stroke="black"/>
          <text x="228.0" y="268.5" text-anchor="middle" transform="rotate(90.0 228.0, 268.5)" class="dimension">33cm</text>
        </g>
        <g id="segment_23473500">
          <line x1="268.0" y1="252.0" x2="268.0" y2="227.0" stroke="black"/>
          <line x1="348.0" y1="252.0" x2="348.0" y2="227.0" stroke="black"/>
          <line x1="268.0" y1="227.0" x2="348.0" y2="227.0" stroke="black"/>
          <text x="308.0" y="212.0" text-anchor="middle" transform="rotate(0.0 308.0, 212.0)" class="dimension">80cm</text>
        </g>
        <g id="segment_23068180">
          <line x1="348.0" y1="252.0" x2="373.0" y2="252.0" stroke="black"/>
          <line x1="348.0" y1="635.0" x2="373.0" y2="635.0" stroke="black"/>
          <line x1="373.0" y1="252.0" x2="373.0" y2="635.0" stroke="black"/>
          <text x="388.0" y="443.5" text-anchor="middle" transform="rotate(90.0 388.0, 443.5)" class="dimension">383cm</text>
        </g>
        <g id="segment_25174540">
          <line x1="348.0" y1="635.0" x2="348.0" y2="670.0" stroke="black"/>
          <line x1="65.0" y1="635.0" x2="65.0" y2="670.0" stroke="black"/>
          <line x1="348.0" y1="670.0" x2="65.0" y2="670.0" stroke="black"/>
          <text x="206.5" y="685.0" text-anchor="middle" transform="rotate(0.0 206.5, 685.0)" class="dimension">283cm</text>
        </g>
        <g id="segment_25174060">
          <line x1="65.0" y1="635.0" x2="30.0" y2="635.0" stroke="black"/>
          <line x1="65.0" y1="354.0" x2="30.0" y2="354.0" stroke="black"/>
          <line x1="30.0" y1="635.0" x2="30.0" y2="354.0" stroke="black"/>
          <text x="15.0" y="494.5" text-anchor="middle" transform="rotate(90.0 15.0, 494.5)" class="dimension">281cm</text>
        </g>
      </g>
      <polygon points="353.0,635.0 603.0,635.0 603.0,252.0 413.0,252.0 413.0,312.0 353.0,312.0" class="room-stroke"/>
      <g id="room_kitchen" class="show_hover">
        <polygon points="353.0,635.0 603.0,635.0 603.0,252.0 413.0,252.0 413.0,312.0 353.0,312.0" class="room-floor"/>
        <text x="478.0" y="443.5" class="room-name" text-anchor="middle">kitchen</text>
        <text x="478.0" y="463.5" text-anchor="middle">9.22 m²</text>
        <g id="segment_25032740">
          <line x1="353.0" y1="635.0" x2="353.0" y2="670.0" stroke="black"/>
          <line x1="603.0" y1="635.0" x2="603.0" y2="670.0" stroke="black"/>
          <line x1="353.0" y1="670.0" x2="603.0" y2="670.0" stroke="black"/>
          <text x="478.0" y="685.0" text-anchor="middle" transform="rotate(0.0 478.0, 685.0)" class="dimension">250cm</text>
        </g>
        <g id="segment_25032080">
          <line x1="603.0" y1="635.0" x2="628.0" y2="635.0" stroke="black"/>
          <line x1="603.0" y1="252.0" x2="628.0" y2="252.0" stroke="black"/>
          <line x1="628.0" y1="635.0" x2="628.0" y2="252.0" stroke="black"/>
          <text x="643.0" y="443.5" text-anchor="middle" transform="rotate(90.0 643.0, 443.5)" class="dimension">383cm</text>
        </g>
        <g id="segment_24805780">
          <line x1="603.0" y1="252.0" x2="603.0" y2="227.0" stroke="black"/>
          <line x1="413.0" y1="252.0" x2="413.0" y2="227.0" stroke="black"/>
          <line x1="603.0" y1="227.0" x2="413.0" y2="227.0" stroke="black"/>
          <text x="508.0" y="212.0" text-anchor="middle" transform="rotate(0.0 508.0, 212.0)" class="dimension">190cm</text>
        </g>
        <g id="segment_25162960">
          <line x1="413.0" y1="252.0" x2="388.0" y2="252.0" stroke="black"/>
          <line x1="413.0" y1="312.0" x2="388.0" y2="312.0" stroke="black"/>
          <line x1="388.0" y1="252.0" x2="388.0" y2="312.0" stroke="black"/>
          <text x="373.0" y="282.0" text-anchor="middle" transform="rotate(90.0 373.0, 282.0)" class="dimension">60cm</text>
        </g>
        <g id="segment_25049520">
          <line x1="413.0" y1="312.0" x2="413.0" y2="287.0" stroke="black"/>
          <line x1="353.0" y1="312.0" x2="353.0" y2="287.0" stroke="black"/>
          <line x1="413.0" y1="287.0" x2="353.0" y2="287.0" stroke="black"/>
          <text x="383.0" y="272.0" text-anchor="middle" transform="rotate(0.0 383.0, 272.0)" class="dimension">60cm</text>
        </g>
        <g id="segment_23047020">
          <line x1="353.0" y1="312.0" x2="328.0" y2="312.0" stroke="black"/>
          <line x1="353.0" y1="635.0" x2="328.0" y2="635.0" stroke="black"/>
          <line x1="328.0" y1="312.0" x2="328.0" y2="635.0" stroke="black"/>
          <text x="313.0" y="473.5" text-anchor="middle" transform="rotate(90.0 313.0, 473.5)" class="dimension">323cm</text>
        </g>
      </g>
      <polygon points="353.0,252.0 408.0,252.0 408.0,307.0 353.0,307.0" class="room-stroke"/>
      <g id="room_gas_line" class="show_hover">
        <polygon points="353.0,252.0 408.0,252.0 408.0,307.0 353.0,307.0" class="room-floor"/>
        <text x="380.5" y="279.5" class="room-name" text-anchor="middle">gas line</text>
        <text x="380.5" y="299.5" text-anchor="middle">0.3 m²</text>
        <g id="segment_24983080">
          <line x1="353.0" y1="252.0" x2="353.0" y2="227.0" stroke="black"/>
          <line x1="408.0" y1="252.0" x2="408.0" y2="227.0" stroke="black"/>
          <line x1="353.0" y1="227.0" x2="408.0" y2="227.0" stroke="black"/>
          <text x="380.5" y="212.0" text-anchor="middle" transform="rotate(0.0 380.5, 212.0)" class="dimension">55cm</text>
        </g>
        <g id="segment_25148380">
          <line x1="408.0" y1="252.0" x2="433.0" y2="252.0" stroke="black"/>
          <line x1="408.0" y1="307.0" x2="433.0" y2="307.0" stroke="black"/>
          <line x1="433.0" y1="252.0" x2="433.0" y2="307.0" stroke="black"/>
          <text x="448.0" y="279.5" text-anchor="middle" transform="rotate(90.0 448.0, 279.5)" class="dimension">55cm</text>
        </g>
        <g id="segment_25044760">
          <line x1="408.0" y1="307.0" x2="408.0" y2="332.0" stroke="black"/>
          <line x1="353.0" y1="307.0" x2="353.0" y2="332.0" stroke="black"/>
          <line x1="408.0" y1="332.0" x2="353.0" y2="332.0" stroke="black"/>
          <text x="380.5" y="347.0" text-anchor="middle" transform="rotate(0.0 380.5, 347.0)" class="dimension">55cm</text>
        </g>
        <g id="segment_24981640">
          <line x1="353.0" y1="307.0" x2="328.0" y2="307.0" stroke="black"/>
          <line x1="353.0" y1="252.0" x2="328.0" y2="252.0" stroke="black"/>
          <line x1="328.0" y1="307.0" x2="328.0" y2="252.0" stroke="black"/>
          <text x="313.0" y="279.5" text-anchor="middle" transform="rotate(90.0 313.0, 279.5)" class="dimension">55cm</text>
        </g>
      </g>
      <g id="wall_dining_room_0">
        <polygon points="608.0,65.0 976.0,65.0 976.0,50.0 608.0,50.0" class="wall"/>
      </g>
      <g id="wall_dining_room_1">
        <polygon points="976.0,65.0 976.0,635.0 991.0,635.0 991.0,65.0" class="wall"/>
      </g>
      <g id="wall_dining_room_2">
        <polygon points="976.0,635.0 608.0,635.0 608.0,650.0 976.0,650.0" class="wall"/>
        <g id="window_2615260" class="window">
          <path d="M 833.5,642.5 L 753.5,642.5 A 80.0,80.0 0 0,1 833.5,562.5 Z"/>
          <path d="M 673.5,642.5 L 753.5,642.5 A 80.0,80.0 0 0,0 673.5,562.5 Z"/>
          <polygon points="916.0,635.0 916.0,650.0 671.0,650.0 671.0,635.0"/>
          <line x1="916.0" y1="642.5" x2="671.0" y2="642.5"/>
        </g>
      </g>
      <g id="wall_hall_0">
        <polygon points="603.0,65.0 268.0,65.0 268.0,50.0 603.0,50.0" class="wall"/>
        <g id="door_2701820" class="door">
          <path d="M 389.0,57.5 L 481.0,57.5 A 92.0,92.0 0 0,1 389.0,149.5 Z"/>
          <polygon points="486.0,65.0 486.0,50.0 384.0,50.0 384.0,65.0"/>
          <line x1="486.0" y1="57.5" x2="384.0" y2="57.5"/>
        </g>
      </g>
      <g id="wall_hall_3">
        <polygon points="385.0,247.0 385.0,183.0 390.0,183.0 390.0,247.0" class="wall"/>
      </g>
      <g id="wall_hall_4">
        <polygon points="385.0,183.0 515.0,183.0 515.0,188.0 385.0,188.0" class="wall"/>
      </g>
      <g id="wall_hall_5">
        <polygon points="515.0,183.0 515.0,247.0 510.0,247.0 510.0,183.0" class="wall"/>
      </g>
      <g id="wall_toilets_3">
        <polygon points="119.0,65.0 263.0,65.0 263.0,50.0 119.0,50.0" class="wall"/>
      </g>
      <g id="wall_cmv_2">
        <polygon points="65.0,150.0 65.0,65.0 50.0,65.0 50.0,150.0" class="wall"/>
      </g>
      <g id="wall_cmv_3">
        <polygon points="65.0,65.0 114.0,65.0 114.0,50.0 65.0,50.0" class="wall"/>
      </g>
      <g id="wall_bathroom_1">
        <polygon points="65.0,155.0 65.0,349.0 50.0,349.0 50.0,155.0" class="wall"/>
      </g>
      <g id="wall_bedroom_6">
        <polygon points="348.0,635.0 65.0,635.0 65.0,650.0 348.0,650.0" class="wall"/>
        <g id="window_25174680" class="window">
          <path d="M 322.0,642.5 L 222.0,642.5 A 100.0,100.0 0 0,1 322.0,542.5 Z"/>
          <polygon points="327.0,635.0 327.0,650.0 217.0,650.0 217.0,635.0"/>
          <line x1="327.0" y1="642.5" x2="217.0" y2="642.5"/>
        </g>
      </g>
      <g id="wall_bedroom_7">
        <polygon points="65.0,635.0 65.0,354.0 50.0,354.0 50.0,635.0" class="wall"/>
      </g>
      <g id="wall_kitchen_0">
        <polygon points="353.0,635.0 603.0,635.0 603.0,650.0 353.0,650.0" class="wall"/>
        <g id="window_25032920" class="window">
          <path d="M 576.0,642.5 L 476.0,642.5 A 100.0,100.0 0 0,1 576.0,542.5 Z"/>
          <polygon points="471.0,635.0 471.0,650.0 581.0,650.0 581.0,635.0"/>
          <line x1="471.0" y1="642.5" x2="581.0" y2="642.5"/>
        </g>
      </g>
      <g id="wall_kitchen">
        <polygon points="603.0,635.0 603.0,252.0 608.0,252.0 608.0,635.0" class="wall"/>
        <g id="door_25032180" class="door">
          <path d="M 605.5,545.0 L 605.5,459.0 A 86.0,86.0 0 0,1 691.5,545.0 Z"/>
          <polygon points="603.0,545.0 608.0,545.0 608.0,457.0 603.0,457.0"/>
          <line x1="605.5" y1="545.0" x2="605.5" y2="457.0"/>
        </g>
      </g>
      <g id="wall_gas_line_0">
        <polygon points="353.0,252.0 408.0,252.0 408.0,247.0 353.0,247.0" class="wall"/>
      </g>
      <g id="wall_gas_line_3">
        <polygon points="353.0,307.0 353.0,252.0 348.0,252.0 348.0,307.0" class="wall"/>
      </g>
      <g id="wall_dining_room_hall_dining_room_hall2">
        <polygon points="603.0,635.0 603.0,247.0 603.0,65.0 608.0,65.0 608.0,247.0 608.0,635.0" class="wall"/>
        <g id="door_2580640" class="door">
          <path d="M 605.5,193.0 L 605.5,152.0 A 41.0,41.0 0 0,1 646.5,193.0 Z"/>
          <path d="M 605.5,72.0 L 605.5,152.0 A 80.0,80.0 0 0,0 685.5,72.0 Z"/>
          <polygon points="603.0,195.0 608.0,195.0 608.0,65.0 603.0,65.0"/>
          <line x1="605.5" y1="195.0" x2="605.5" y2="65.0"/>
        </g>
      </g>
      <g id="wall_hall_toilets_toilets_hall">
        <polygon points="268.0,65.0 268.0,150.0 268.0,247.0 263.0,247.0 263.0,150.0 263.0,65.0" class="wall"/>
        <g id="door_23076880" class="door">
          <path d="M 265.5,67.0 L 265.5,148.0 A 81.0,81.0 0 0,0 346.5,67.0 Z"/>
          <polygon points="268.0,66.0 263.0,66.0 263.0,149.0 268.0,149.0"/>
          <line x1="265.5" y1="66.0" x2="265.5" y2="149.0"/>
        </g>
      </g>
      <g id="wall_hall_2_bedroom_4">
        <polygon points="268.0,247.0 348.0,247.0 385.0,247.0 385.0,252.0 348.0,252.0 268.0,252.0" class="wall"/>
        <g id="door_25175760" class="door">
          <path d="M 346.0,249.5 L 270.0,249.5 A 76.0,76.0 0 0,0 346.0,325.5 Z"/>
          <polygon points="269.0,247.0 269.0,252.0 347.0,252.0 347.0,247.0"/>
          <line x1="269.0" y1="249.5" x2="347.0" y2="249.5"/>
        </g>
      </g>
      <g id="wall_hall_6_kitchen_2">
        <polygon points="413.0,247.0 515.0,247.0 603.0,247.0 603.0,252.0 515.0,252.0 413.0,252.0" class="wall"/>
        <g id="door_2567380" class="door">
          <path d="M 517.0,249.5 L 601.0,249.5 A 84.0,84.0 0 0,1 517.0,333.5 Z"/>
          <polygon points="516.0,247.0 516.0,252.0 602.0,252.0 602.0,247.0"/>
          <line x1="516.0" y1="249.5" x2="602.0" y2="249.5"/>
        </g>
      </g>
      <g id="wall_toilets_bathroom_bathroom_0">
        <polygon points="263.0,155.0 119.0,155.0 65.0,155.0 65.0,150.0 119.0,150.0 263.0,150.0" class="wall"/>
      </g>
      <g id="wall_toilets_cmv_cmv_0">
        <polygon points="114.0,150.0 114.0,65.0 119.0,65.0 119.0,150.0" class="wall"/>
      </g>
      <g id="wall_cmv_1_bathroom_0">
        <polygon points="263.0,155.0 114.0,155.0 65.0,155.0 65.0,150.0 114.0,150.0 263.0,150.0" class="wall"/>
      </g>
      <g id="wall_bathroom_bedroom_bathroom_bedroom2">
        <polygon points="65.0,349.0 243.0,349.0 248.0,349.0 248.0,354.0 243.0,354.0 65.0,354.0" class="wall"/>
      </g>
      <g id="wall_bathroom_3_bedroom_1">
        <polygon points="243.0,354.0 243.0,349.0 243.0,285.0 243.0,280.0 248.0,280.0 248.0,285.0 248.0,349.0 248.0,354.0" class="wall"/>
      </g>
      <g id="wall_bathroom_4_bedroom_2">
        <polygon points="243.0,280.0 248.0,280.0 263.0,280.0 268.0,280.0 268.0,285.0 263.0,285.0 248.0,285.0 243.0,285.0" class="wall"/>
      </g>
      <g id="wall_bathroom_hall_bedroom_3">
        <polygon points="263.0,285.0 263.0,280.0 263.0,252.0 263.0,155.0 268.0,155.0 268.0,252.0 268.0,280.0 268.0,285.0" class="wall"/>
        <g id="door_24838180" class="door">
          <path d="M 265.5,238.0 L 265.5,157.0 A 81.0,81.0 0 0,1 346.5,238.0 Z"/>
          <polygon points="263.0,239.0 268.0,239.0 268.0,156.0 263.0,156.0"/>
          <line x1="265.5" y1="239.0" x2="265.5" y2="156.0"/>
        </g>
      </g>
      <g id="wall_bedroom_kitchen_kitchen_5">
        <polygon points="353.0,252.0 353.0,312.0 353.0,635.0 348.0,635.0 348.0,312.0 348.0,252.0" class="wall"/>
      </g>
      <g id="wall_kitchen_3_gas_line_1">
        <polygon points="413.0,252.0 413.0,307.0 413.0,312.0 408.0,312.0 408.0,307.0 408.0,252.0" class="wall"/>
      </g>
      <g id="wall_kitchen_4_gas_line_2">
        <polygon points="413.0,312.0 408.0,312.0 353.0,312.0 353.0,307.0 408.0,307.0 413.0,307.0" class="wall"/>
      </g>
      <g id="wall_corner_dining_room_0_dining_room_1">
        <polygon points="976.0,65.0 991.0,65.0 991.0,50.0 976.0,50.0" class="wall"/>
      </g>
      <g id="wall_corner_dining_room_0_dining_room_hall_dining_room_hall2">
        <polygon points="608.0,65.0 603.0,65.0 603.0,50.0 608.0,50.0" class="wall"/>
      </g>
      <g id="wall_corner_dining_room_1_dining_room_2">
        <polygon points="976.0,635.0 976.0,650.0 991.0,650.0 991.0,635.0" class="wall"/>
      </g>
      <g id="wall_corner_dining_room_2_kitchen">
        <polygon points="608.0,635.0 603.0,635.0 603.0,650.0 608.0,650.0" class="wall"/>
      </g>
      <g id="wall_corner_hall_0_hall_toilets_toilets_hall">
        <polygon points="268.0,65.0 263.0,65.0 263.0,50.0 268.0,50.0" class="wall"/>
      </g>
      <g id="wall_corner_toilets_3_toilets_cmv_cmv_0">
        <polygon points="119.0,65.0 114.0,65.0 114.0,50.0 119.0,50.0" class="wall"/>
      </g>
      <g id="wall_corner_cmv_2_cmv_3">
        <polygon points="65.0,65.0 65.0,50.0 50.0,50.0 50.0,65.0" class="wall"/>
      </g>
      <g id="wall_corner_cmv_2_toilets_bathroom_bathroom_0">
        <polygon points="65.0,150.0 65.0,155.0 50.0,155.0 50.0,150.0" class="wall"/>
      </g>
      <g id="wall_corner_bathroom_1_bathroom_bedroom_bathroom_bedroom2">
        <polygon points="65.0,349.0 65.0,354.0 50.0,354.0 50.0,349.0" class="wall"/>
      </g>
      <g id="wall_corner_bedroom_6_bedroom_7">
        <polygon points="65.0,635.0 50.0,635.0 50.0,650.0 65.0,650.0" class="wall"/>
      </g>
      <g id="wall_corner_bedroom_6_bedroom_kitchen_kitchen_5">
        <polygon points="348.0,635.0 353.0,635.0 353.0,650.0 348.0,650.0" class="wall"/>
      </g>
      <g id="wall_corner_gas_line_0_kitchen_3_gas_line_1">
        <polygon points="408.0,252.0 413.0,252.0 413.0,247.0 408.0,247.0" class="wall"/>
      </g>
    </g>
    <text x="495.5" y="700.0" text-anchor="middle">Total: 50.01 m²</text>
  </g>
</svg>
