<?xml version="1.0" encoding="UTF-8"?>
<!DOCTYPE svg PUBLIC "-//W3C//DTD SVG 1.1//EN" "http://www.w3.org/Graphics/SVG/1.1/DTD/svg11.dtd">
<svg xmlns="http://www.w3.org/2000/svg" width="868.0" height="730.0">
  <style type="text/css">svg {
    font-family: "Helvetica Neue", Helvetica, Arial, sans-serif;
}

.show_hover {
    opacity: 0.0;
}
.show_hover:hover {
    opacity: 1.0;
}

.room-name {
    font-weight: bold;
    text-decoration: underline;
}

.dimension {
    font-weight: lighter;
}

.wall {
    fill: grey;
    stroke: darkgrey;
}

.window {
    fill: none;
    stroke: darkgrey;
}

.window path {
    opacity: 0.0;
}
.window:hover path {
    opacity:  1.0
}
</style>
  <!--Dinning Room-->
  <g id="dinning_room" class="show_hover">
    <polygon points="395.0,55.0 763.0,55.0 763.0,55.0 763.0,625.0 763.0,625.0 395.0,625.0 395.0,625.0 395.0,55.0" fill="beige" stroke="red"/>
    <text x="579.0" y="340.0" class="room-name" text-anchor="middle">Dinning Room</text>
    <text x="579.0" y="360.0" text-anchor="middle">20.976 m²</text>
    <g id="segment_28970140">
      <line x1="395.0" y1="55.0" x2="395.0" y2="40.0" stroke="black"/>
      <line x1="763.0" y1="55.0" x2="763.0" y2="40.0" stroke="black"/>
      <line x1="395.0" y1="40.0" x2="763.0" y2="40.0" stroke="black"/>
      <text x="579.0" y="25.0" text-anchor="middle" transform="rotate(0.0 579.0, 25.0)" class="dimension">368cm</text>
    </g>
    <g id="segment_28969600">
      <line x1="763.0" y1="55.0" x2="778.0" y2="55.0" stroke="black"/>
      <line x1="763.0" y1="625.0" x2="778.0" y2="625.0" stroke="black"/>
      <line x1="778.0" y1="55.0" x2="778.0" y2="625.0" stroke="black"/>
      <text x="793.0" y="340.0" text-anchor="middle" transform="rotate(90.0 793.0, 340.0)" class="dimension">570cm</text>
    </g>
    <g id="segment_28969060">
      <line x1="763.0" y1="625.0" x2="763.0" y2="640.0" stroke="black"/>
      <line x1="395.0" y1="625.0" x2="395.0" y2="640.0" stroke="black"/>
      <line x1="763.0" y1="640.0" x2="395.0" y2="640.0" stroke="black"/>
      <text x="579.0" y="655.0" text-anchor="middle" transform="rotate(0.0 579.0, 655.0)" class="dimension">368cm</text>
    </g>
    <g id="segment_28475160">
      <line x1="395.0" y1="625.0" x2="380.0" y2="625.0" stroke="black"/>
      <line x1="395.0" y1="55.0" x2="380.0" y2="55.0" stroke="black"/>
      <line x1="380.0" y1="625.0" x2="380.0" y2="55.0" stroke="black"/>
      <text x="365.0" y="340.0" text-anchor="middle" transform="rotate(90.0 365.0, 340.0)" class="dimension">570cm</text>
    </g>
  </g>
  <!--Hall-->
  <g id="hall" class="show_hover">
    <polygon points="390.0,55.0 55.0,55.0 55.0,55.0 55.0,237.0 55.0,237.0 172.0,237.0 172.0,237.0 172.0,172.0 172.0,172.0 302.0,172.0 302.0,172.0 302.0,236.0 302.0,236.0 390.0,236.0 390.0,236.0 390.0,54.0" fill="beige" stroke="red"/>
    <text x="222.5" y="145.5" class="room-name" text-anchor="middle">Hall</text>
    <text x="222.5" y="165.5" text-anchor="middle">5.2627 m²</text>
    <g id="segment_28914200">
      <line x1="390.0" y1="55.0" x2="390.0" y2="40.0" stroke="black"/>
      <line x1="55.0" y1="55.0" x2="55.0" y2="40.0" stroke="black"/>
      <line x1="390.0" y1="40.0" x2="55.0" y2="40.0" stroke="black"/>
      <text x="222.5" y="25.0" text-anchor="middle" transform="rotate(0.0 222.5, 25.0)" class="dimension">335cm</text>
    </g>
    <g id="segment_28913660">
      <line x1="55.0" y1="55.0" x2="40.0" y2="55.0" stroke="black"/>
      <line x1="55.0" y1="237.0" x2="40.0" y2="237.0" stroke="black"/>
      <line x1="40.0" y1="55.0" x2="40.0" y2="237.0" stroke="black"/>
      <text x="25.0" y="146.0" text-anchor="middle" transform="rotate(90.0 25.0, 146.0)" class="dimension">182cm</text>
    </g>
    <g id="segment_28913140">
      <line x1="55.0" y1="237.0" x2="55.0" y2="252.0" stroke="black"/>
      <line x1="172.0" y1="237.0" x2="172.0" y2="252.0" stroke="black"/>
      <line x1="55.0" y1="252.0" x2="172.0" y2="252.0" stroke="black"/>
      <text x="113.5" y="267.0" text-anchor="middle" transform="rotate(0.0 113.5, 267.0)" class="dimension">117cm</text>
    </g>
    <g id="segment_28912620">
      <line x1="172.0" y1="237.0" x2="187.0" y2="237.0" stroke="black"/>
      <line x1="172.0" y1="172.0" x2="187.0" y2="172.0" stroke="black"/>
      <line x1="187.0" y1="237.0" x2="187.0" y2="172.0" stroke="black"/>
      <text x="202.0" y="204.5" text-anchor="middle" transform="rotate(90.0 202.0, 204.5)" class="dimension">65cm</text>
    </g>
    <g id="segment_28912100">
      <line x1="172.0" y1="172.0" x2="172.0" y2="187.0" stroke="black"/>
      <line x1="302.0" y1="172.0" x2="302.0" y2="187.0" stroke="black"/>
      <line x1="172.0" y1="187.0" x2="302.0" y2="187.0" stroke="black"/>
      <text x="237.0" y="202.0" text-anchor="middle" transform="rotate(0.0 237.0, 202.0)" class="dimension">130cm</text>
    </g>
    <g id="segment_28911580">
      <line x1="302.0" y1="172.0" x2="287.0" y2="172.0" stroke="black"/>
      <line x1="302.0" y1="236.0" x2="287.0" y2="236.0" stroke="black"/>
      <line x1="287.0" y1="172.0" x2="287.0" y2="236.0" stroke="black"/>
      <text x="272.0" y="204.0" text-anchor="middle" transform="rotate(90.0 272.0, 204.0)" class="dimension">64cm</text>
    </g>
    <g id="segment_28911060">
      <line x1="302.0" y1="236.0" x2="302.0" y2="251.0" stroke="black"/>
      <line x1="390.0" y1="236.0" x2="390.0" y2="251.0" stroke="black"/>
      <line x1="302.0" y1="251.0" x2="390.0" y2="251.0" stroke="black"/>
      <text x="346.0" y="266.0" text-anchor="middle" transform="rotate(0.0 346.0, 266.0)" class="dimension">88cm</text>
    </g>
    <g id="segment_28437120">
      <line x1="390.0" y1="236.0" x2="405.0" y2="236.0" stroke="black"/>
      <line x1="390.0" y1="54.0" x2="405.0" y2="53.99999999999999" stroke="black"/>
      <line x1="405.0" y1="236.0" x2="405.0" y2="53.99999999999999" stroke="black"/>
      <text x="420.0" y="145.0" text-anchor="middle" transform="rotate(90.0 420.0, 145.0)" class="dimension">182cm</text>
    </g>
  </g>
  <!--Dinning Room_0-->
  <g id="wall_dinning_room_0">
    <polygon points="395.0,55.0 763.0,55.0 763.0,50.0 395.0,50.0" class="wall"/>
  </g>
  <!--Dinning Room_1-->
  <g id="wall_dinning_room_1">
    <polygon points="763.0,55.0 763.0,625.0 768.0,625.0 768.0,55.0" class="wall"/>
  </g>
  <!--Dinning Room_2-->
  <g id="wall_dinning_room_2">
    <polygon points="763.0,625.0 395.0,625.0 395.0,630.0 763.0,630.0" class="wall"/>
  </g>
  <!--Hall_0-->
  <g id="wall_hall_0">
    <polygon points="390.0,55.0 55.0,55.0 55.0,50.0 390.0,50.0" class="wall"/>
  </g>
  <!--Hall_1-->
  <g id="wall_hall_1">
    <polygon points="55.0,55.0 55.0,237.0 50.0,237.0 50.0,55.0" class="wall"/>
  </g>
  <!--Hall_2-->
  <g id="wall_hall_2">
    <polygon points="55.0,237.0 172.0,237.0 172.0,242.0 55.0,242.0" class="wall"/>
  </g>
  <!--Hall_3-->
  <g id="wall_hall_3">
    <polygon points="172.0,237.0 172.0,172.0 177.0,172.0 177.0,237.0" class="wall"/>
  </g>
  <!--Hall_4-->
  <g id="wall_hall_4">
    <polygon points="172.0,172.0 302.0,172.0 302.0,177.0 172.0,177.0" class="wall"/>
  </g>
  <!--Hall_5-->
  <g id="wall_hall_5">
    <polygon points="302.0,172.0 302.0,236.0 297.0,236.0 297.0,172.0" class="wall"/>
  </g>
  <!--Hall_6-->
  <g id="wall_hall_6">
    <polygon points="302.0,236.0 390.0,236.0 390.0,241.0 302.0,241.0" class="wall"/>
  </g>
  <!--dining_room_hall_Hall_7-->
  <g id="wall_dining_room_hall_hall_7">
    <polygon points="390.0,625.0 390.0,236.0 390.0,55.0 390.0,54.0 395.0,54.0 395.0,55.0 395.0,236.0 395.0,625.0" class="wall"/>
  </g>
  <text x="384.0" y="680.0" text-anchor="middle">Total: 26.238699999999998 m²</text>
</svg>
