<?xml version="1.0" encoding="UTF-8"?>
<!DOCTYPE svg PUBLIC "-//W3C//DTD SVG 1.1//EN" "http://www.w3.org/Graphics/SVG/1.1/DTD/svg11.dtd">
<svg xmlns="http://www.w3.org/2000/svg" width="1041.0" height="735.0">
  <style type="text/css">svg {
    font-family: "Helvetica Neue", Helvetica, Arial, sans-serif;
}

.show_hover {
    opacity: 0.0;
}
.show_hover:hover {
    opacity: 1.0;
}

.room-name {
    font-weight: bold;
    text-decoration: underline;
}

.dimension {
    font-weight: bold;
}</style>
  <!--dining room-->
  <g id="dining_room" class="show_hover">
    <polygon points="573.0,65.0 941.0,50.0 941.0,65.0 941.0,635.0 573.0,635.0 578.0,65.0" fill="beige" stroke="red"/>
    <text x="757.0" y="350.0" class="room-name" text-anchor="middle"/>
    <text x="757.0" y="370.0" text-anchor="middle"/>
  </g>
  <!--hall-->
  <g id="hall" class="show_hover">
    <polygon points="578.0,65.0 243.0,65.0 243.0,247.0 360.0,247.0 360.0,183.0 490.0,183.0 490.0,247.0 578.0,247.0 573.0,247.0 573.0,65.0" fill="beige" stroke="red"/>
    <text x="410.5" y="156.0" class="room-name" text-anchor="middle"/>
    <text x="410.5" y="176.0" text-anchor="middle"/>
  </g>
  <!--toilets-->
  <g id="toilets" class="show_hover">
    <polygon points="248.0,65.0 248.0,150.0 104.0,155.0 104.0,150.0 104.0,65.0 104.0,80.0 248.0,80.0" fill="beige" stroke="red"/>
    <text x="176.0" y="107.5" class="room-name" text-anchor="middle"/>
    <text x="176.0" y="127.5" text-anchor="middle"/>
  </g>
  <!--CMV-->
  <g id="cmv" class="show_hover">
    <polygon points="109.0,65.0 109.0,150.0 109.0,155.0 60.0,150.0 60.0,65.0 60.0,80.0 109.0,80.0" fill="beige" stroke="red"/>
    <text x="84.5" y="107.5" class="room-name" text-anchor="middle"/>
    <text x="84.5" y="127.5" text-anchor="middle"/>
  </g>
  <!--bathroom-->
  <g id="bathroom" class="show_hover">
    <polygon points="248.0,155.0 50.0,155.0 65.0,155.0 65.0,349.0 50.0,344.0 228.0,344.0 228.0,349.0 228.0,280.0 228.0,275.0 248.0,275.0 248.0,280.0 253.0,155.0" fill="beige" stroke="red"/>
    <text x="149.0" y="252.0" class="room-name" text-anchor="middle"/>
    <text x="149.0" y="272.0" text-anchor="middle"/>
  </g>
  <!--bedroom-->
  <g id="bedroom" class="show_hover">
    <polygon points="50.0,349.0 228.0,349.0 228.0,344.0 228.0,275.0 228.0,280.0 248.0,280.0 248.0,275.0 248.0,242.0 333.0,242.0 338.0,242.0 333.0,625.0 50.0,625.0 50.0,344.0" fill="beige" stroke="red"/>
    <text x="191.5" y="433.5" class="room-name" text-anchor="middle"/>
    <text x="191.5" y="453.5" text-anchor="middle"/>
  </g>
  <!--kitchen-->
  <g id="kitchen" class="show_hover">
    <polygon points="338.0,625.0 588.0,625.0 588.0,242.0 398.0,242.0 398.0,302.0 338.0,302.0 333.0,302.0" fill="beige" stroke="red"/>
    <text x="463.0" y="433.5" class="room-name" text-anchor="middle"/>
    <text x="463.0" y="453.5" text-anchor="middle"/>
  </g>
  <!--gas line-->
  <g id="gas_line" class="show_hover">
    <polygon points="338.0,247.0 393.0,247.0 393.0,242.0 393.0,297.0 338.0,297.0 338.0,242.0" fill="beige" stroke="red"/>
    <text x="365.5" y="269.5" class="room-name" text-anchor="middle"/>
    <text x="365.5" y="289.5" text-anchor="middle"/>
  </g>
  <!--dining room_1-->
  <g id="dining_room_1">
    <polygon points="941.0,65.0 941.0,635.0 926.0,635.0 926.0,65.0" fill="gray" stroke="black"/>
  </g>
  <!--dining room_2-->
  <g id="dining_room_2">
    <polygon points="941.0,635.0 573.0,635.0 573.0,620.0 941.0,620.0" fill="gray" stroke="black"/>
    <polygon points="881.0,635.0 881.0,620.0 636.0,620.0 636.0,635.0" fill="white" stroke="black"/>
    <line x1="881.0" y1="627.5" x2="636.0" y2="627.5" stroke="black"/>
  </g>
  <!--hall_toilets-->
  <g id="hall_toilets">
    <polygon points="243.0,65.0 243.0,247.0 248.0,247.0 248.0,65.0" fill="gray" stroke="black"/>
  </g>
  <!--hall_3-->
  <g id="hall_3">
    <polygon points="360.0,247.0 360.0,183.0 365.0,183.0 365.0,247.0" fill="gray" stroke="black"/>
  </g>
  <!--hall_4-->
  <g id="hall_4">
    <polygon points="360.0,183.0 490.0,183.0 490.0,178.0 360.0,178.0" fill="gray" stroke="black"/>
  </g>
  <!--hall_5-->
  <g id="hall_5">
    <polygon points="490.0,183.0 490.0,247.0 495.0,247.0 495.0,183.0" fill="gray" stroke="black"/>
  </g>
  <!--hall_6-->
  <g id="hall_6">
    <polygon points="490.0,247.0 578.0,247.0 578.0,242.0 490.0,242.0" fill="gray" stroke="black"/>
  </g>
  <!--toilets_hall-->
  <g id="toilets_hall">
    <polygon points="248.0,65.0 248.0,150.0 253.0,150.0 253.0,65.0" fill="gray" stroke="black"/>
  </g>
  <!--toilets_cmv-->
  <g id="toilets_cmv">
    <polygon points="104.0,150.0 104.0,65.0 109.0,65.0 109.0,150.0" fill="gray" stroke="black"/>
  </g>
  <!--CMV_0-->
  <g id="cmv_0">
    <polygon points="109.0,65.0 109.0,150.0 114.0,150.0 114.0,65.0" fill="gray" stroke="black"/>
  </g>
  <!--CMV_2-->
  <g id="cmv_2">
    <polygon points="60.0,150.0 60.0,65.0 75.0,65.0 75.0,150.0" fill="gray" stroke="black"/>
  </g>
  <!--bathroom_3-->
  <g id="bathroom_3">
    <polygon points="228.0,349.0 228.0,280.0 223.0,280.0 223.0,349.0" fill="gray" stroke="black"/>
  </g>
  <!--bedroom_1-->
  <g id="bedroom_1">
    <polygon points="228.0,344.0 228.0,275.0 233.0,275.0 233.0,344.0" fill="gray" stroke="black"/>
  </g>
  <!--bedroom_6-->
  <g id="bedroom_6">
    <polygon points="333.0,625.0 50.0,625.0 50.0,610.0 333.0,610.0" fill="gray" stroke="black"/>
  </g>
  <!--kitchen_0-->
  <g id="kitchen_0">
    <polygon points="338.0,625.0 588.0,625.0 588.0,610.0 338.0,610.0" fill="gray" stroke="black"/>
    <polygon points="456.0,625.0 456.0,610.0 566.0,610.0 566.0,625.0" fill="white" stroke="black"/>
    <line x1="456.0" y1="617.5" x2="566.0" y2="617.5" stroke="black"/>
  </g>
  <!--kitchen-->
  <g id="kitchen">
    <polygon points="588.0,625.0 588.0,242.0 583.0,242.0 583.0,625.0" fill="gray" stroke="black"/>
  </g>
  <!--kitchen_2-->
  <g id="kitchen_2">
    <polygon points="588.0,242.0 398.0,242.0 398.0,237.0 588.0,237.0" fill="gray" stroke="black"/>
  </g>
  <!--kitchen_4-->
  <g id="kitchen_4">
    <polygon points="398.0,302.0 338.0,302.0 338.0,297.0 398.0,297.0" fill="gray" stroke="black"/>
  </g>
  <!--gas line_2-->
  <g id="gas_line_2">
    <polygon points="393.0,297.0 338.0,297.0 338.0,292.0 393.0,292.0" fill="gray" stroke="black"/>
  </g>
  <!--gas line_3-->
  <g id="gas_line_3">
    <polygon points="338.0,297.0 338.0,242.0 343.0,242.0 343.0,297.0" fill="gray" stroke="black"/>
  </g>
  <!--hall_0_dining room_0_hall_0-->
  <g id="hall_0_dining_room_0_hall_0">
    <polygon points="941.0,65.0 578.0,50.0 573.0,50.0 243.0,50.0 243.0,65.0 573.0,65.0 578.0,65.0 941.0,50.0" fill="gray" stroke="black"/>
  </g>
  <!--dining_room_hall2_dining_room_hall_dining_room_hall2-->
  <g id="dining_room_hall2_dining_room_hall_dining_room_hall2">
    <polygon points="573.0,635.0 578.0,247.0 578.0,65.0 573.0,65.0 573.0,247.0 578.0,635.0" fill="gray" stroke="black"/>
  </g>
  <!--CMV_3_toilets_3_CMV_3-->
  <g id="cmv_3_toilets_3_cmv_3">
    <polygon points="60.0,80.0 104.0,80.0 109.0,80.0 248.0,80.0 248.0,65.0 109.0,65.0 104.0,65.0 60.0,65.0" fill="gray" stroke="black"/>
  </g>
  <!--bathroom_0_CMV_1_toilets_bathroom_CMV_1-->
  <g id="bathroom_0_cmv_1_toilets_bathroom_cmv_1">
    <polygon points="248.0,155.0 109.0,150.0 104.0,150.0 60.0,155.0 50.0,155.0 50.0,150.0 60.0,150.0 104.0,155.0 109.0,155.0 248.0,150.0" fill="gray" stroke="black"/>
  </g>
  <!--bathroom_0_CMV_1_toilets_bathroom_bathroom_0-->
  <g id="bathroom_0_cmv_1_toilets_bathroom_bathroom_0">
    <polygon points="248.0,155.0 109.0,150.0 104.0,150.0 60.0,155.0 50.0,155.0 50.0,150.0 60.0,150.0 104.0,155.0 109.0,155.0 248.0,150.0" fill="gray" stroke="black"/>
  </g>
  <!--bathroom_bedroom2_bathroom_bedroom_bathroom_bedroom2-->
  <g id="bathroom_bedroom2_bathroom_bedroom_bathroom_bedroom2">
    <polygon points="50.0,349.0 228.0,349.0 228.0,344.0 50.0,344.0" fill="gray" stroke="black"/>
  </g>
  <!--bedroom_2_bathroom_4_bedroom_2-->
  <g id="bedroom_2_bathroom_4_bedroom_2">
    <polygon points="228.0,280.0 248.0,280.0 248.0,275.0 228.0,275.0" fill="gray" stroke="black"/>
  </g>
  <!--bedroom_3_bathroom_hall-->
  <g id="bedroom_3_bathroom_hall">
    <polygon points="248.0,280.0 248.0,275.0 248.0,242.0 253.0,155.0 248.0,155.0 253.0,242.0 253.0,275.0 253.0,280.0" fill="gray" stroke="black"/>
  </g>
  <!--bedroom_7_bathroom_1_bedroom_7-->
  <g id="bedroom_7_bathroom_1_bedroom_7">
    <polygon points="50.0,625.0 65.0,349.0 50.0,344.0 65.0,155.0 50.0,155.0 65.0,344.0 50.0,349.0 65.0,625.0" fill="gray" stroke="black"/>
  </g>
  <!--kitchen_5_bedroom_kitchen_kitchen_5-->
  <g id="kitchen_5_bedroom_kitchen_kitchen_5">
    <polygon points="333.0,242.0 333.0,302.0 338.0,625.0 333.0,625.0 338.0,302.0 338.0,242.0" fill="gray" stroke="black"/>
  </g>
  <!--gas line_0_bedroom_4_hall_2_gas line_0-->
  <g id="gas_line_0_bedroom_4_hall_2_gas_line_0">
    <polygon points="243.0,242.0 248.0,242.0 333.0,242.0 338.0,247.0 360.0,242.0 393.0,247.0 393.0,242.0 360.0,247.0 338.0,242.0 333.0,247.0 248.0,247.0 243.0,247.0" fill="gray" stroke="black"/>
  </g>
  <!--gas line_1_kitchen_3_gas line_1-->
  <g id="gas_line_1_kitchen_3_gas_line_1">
    <polygon points="398.0,242.0 398.0,297.0 398.0,302.0 393.0,302.0 393.0,297.0 393.0,242.0" fill="gray" stroke="black"/>
  </g>
  <text x="470.5" y="685.0" text-anchor="middle"/>
</svg>
