<?xml version="1.0" encoding="UTF-8"?>
<!DOCTYPE svg PUBLIC "-//W3C//DTD SVG 1.1//EN" "http://www.w3.org/Graphics/SVG/1.1/DTD/svg11.dtd">
<svg xmlns="http://www.w3.org/2000/svg" width="1424.0" height="979.0">
  <style type="text/css">svg {
    font-family: "Helvetica Neue", Helvetica, Arial, sans-serif;
}

.show_hover {
    opacity: 0.0;
}
.show_hover:hover {
    opacity: 1.0;
}

.room-name {
    font-weight: bold;
    text-decoration: underline;
}

.dimension {
    font-weight: bold;
}</style>
  <defs>
    <pattern id="tiles" x="0" y="0" width="20" height="20" patternUnits="userSpaceOnUse">
  <rect width="20" height="20" fill="#fff"/>
  <rect width="10" height="10" fill="#ccc"/>
  <rect x="10" y="10" width="10" height="10" fill="#ccc"/>
</pattern>
    <pattern id="blueprint" x="0" y="0" width="100" height="100" patternUnits="userSpaceOnUse">
  <rect width="100" height="100" fill="#d5e8f6"/>
  <g fill="#b9cfdf">
    <rect width="100" height="1" y="20"/>
    <rect width="100" height="1" y="40"/>
    <rect width="100" height="1" y="60"/>
    <rect width="100" height="1" y="80"/>
    <rect width="1" height="100" x="20"/>
    <rect width="1" height="100" x="40"/>
    <rect width="1" height="100" x="60"/>
    <rect width="1" height="100" x="80"/>
  </g>
  <rect width="100" height="100" fill="none" stroke-width="2" stroke="#fff"/>
</pattern>
    <pattern id="carbon" x="0" y="0" width="15" height="15" patternUnits="userSpaceOnUse">
  <rect width="50" height="50" fill="#282828"/>
  <circle cx="3" cy="4.3" r="1.8" fill="#393939"/>
  <circle cx="3" cy="3" r="1.8" fill="black"/>
  <circle cx="10.5" cy="12.5" r="1.8" fill="#393939"/>
  <circle cx="10.5" cy="11.3" r="1.8" fill="black"/>
</pattern>
  </defs>
  <!--Sejour-->
  <g id="sejour" class="show_hover">
    <polygon points="1312.0,867.0 1312.0,327.0 947.0,327.0 947.0,412.0 807.0,412.0 807.0,482.0 627.0,482.0 627.0,867.0" fill="beige" stroke="red"/>
    <text x="969.5" y="597.0" class="room-name" text-anchor="middle">Sejour</text>
    <text x="969.5" y="617.0" text-anchor="middle">33.01 m²</text>
    <line x1="1312.0" y1="867.0" x2="1334.0" y2="867.0" stroke="black"/>
    <line x1="1312.0" y1="327.0" x2="1334.0" y2="327.0" stroke="black"/>
    <line x1="1334.0" y1="867.0" x2="1334.0" y2="327.0" stroke="black"/>
    <text x="1349.0" y="597.0" transform="rotate(90.0 1349.0, 597.0)" class="dimension">540cm</text>
    <line x1="1312.0" y1="327.0" x2="1312.0" y2="312.0" stroke="black"/>
    <line x1="947.0" y1="327.0" x2="947.0" y2="312.0" stroke="black"/>
    <line x1="1312.0" y1="312.0" x2="947.0" y2="312.0" stroke="black"/>
    <text x="1129.5" y="297.0" transform="rotate(0.0 1129.5, 297.0)" class="dimension">365cm</text>
    <line x1="947.0" y1="327.0" x2="932.0" y2="327.0" stroke="black"/>
    <line x1="947.0" y1="412.0" x2="932.0" y2="412.0" stroke="black"/>
    <line x1="932.0" y1="327.0" x2="932.0" y2="412.0" stroke="black"/>
    <text x="917.0" y="369.5" transform="rotate(90.0 917.0, 369.5)" class="dimension">85cm</text>
    <line x1="947.0" y1="412.0" x2="947.0" y2="397.0" stroke="black"/>
    <line x1="807.0" y1="412.0" x2="807.0" y2="397.0" stroke="black"/>
    <line x1="947.0" y1="397.0" x2="807.0" y2="397.0" stroke="black"/>
    <text x="877.0" y="382.0" transform="rotate(0.0 877.0, 382.0)" class="dimension">140cm</text>
    <line x1="807.0" y1="412.0" x2="792.0" y2="412.0" stroke="black"/>
    <line x1="807.0" y1="482.0" x2="792.0" y2="482.0" stroke="black"/>
    <line x1="792.0" y1="412.0" x2="792.0" y2="482.0" stroke="black"/>
    <text x="777.0" y="447.0" transform="rotate(90.0 777.0, 447.0)" class="dimension">70cm</text>
    <line x1="807.0" y1="482.0" x2="807.0" y2="467.0" stroke="black"/>
    <line x1="627.0" y1="482.0" x2="627.0" y2="467.0" stroke="black"/>
    <line x1="807.0" y1="467.0" x2="627.0" y2="467.0" stroke="black"/>
    <text x="717.0" y="452.0" transform="rotate(0.0 717.0, 452.0)" class="dimension">180cm</text>
    <line x1="627.0" y1="482.0" x2="612.0" y2="482.0" stroke="black"/>
    <line x1="627.0" y1="867.0" x2="612.0" y2="867.0" stroke="black"/>
    <line x1="612.0" y1="482.0" x2="612.0" y2="867.0" stroke="black"/>
    <text x="597.0" y="674.5" transform="rotate(90.0 597.0, 674.5)" class="dimension">385cm</text>
    <line x1="627.0" y1="867.0" x2="627.0" y2="889.0" stroke="black"/>
    <line x1="1312.0" y1="867.0" x2="1312.0" y2="889.0" stroke="black"/>
    <line x1="627.0" y1="889.0" x2="1312.0" y2="889.0" stroke="black"/>
    <text x="969.5" y="904.0" transform="rotate(0.0 969.5, 904.0)" class="dimension">685cm</text>
  </g>
  <!--Chambre 5-->
  <g id="chambre_5" class="show_hover">
    <polygon points="622.0,482.0 362.0,482.0 362.0,867.0 622.0,867.0" fill="beige" stroke="red"/>
    <text x="492.0" y="674.5" class="room-name" text-anchor="middle">Chambre 5</text>
    <text x="492.0" y="694.5" text-anchor="middle">10.01 m²</text>
    <line x1="622.0" y1="482.0" x2="622.0" y2="467.0" stroke="black"/>
    <line x1="362.0" y1="482.0" x2="362.0" y2="467.0" stroke="black"/>
    <line x1="622.0" y1="467.0" x2="362.0" y2="467.0" stroke="black"/>
    <text x="492.0" y="452.0" transform="rotate(0.0 492.0, 452.0)" class="dimension">260cm</text>
    <line x1="362.0" y1="482.0" x2="347.0" y2="482.0" stroke="black"/>
    <line x1="362.0" y1="867.0" x2="347.0" y2="867.0" stroke="black"/>
    <line x1="347.0" y1="482.0" x2="347.0" y2="867.0" stroke="black"/>
    <text x="332.0" y="674.5" transform="rotate(90.0 332.0, 674.5)" class="dimension">385cm</text>
    <line x1="362.0" y1="867.0" x2="362.0" y2="889.0" stroke="black"/>
    <line x1="622.0" y1="867.0" x2="622.0" y2="889.0" stroke="black"/>
    <line x1="362.0" y1="889.0" x2="622.0" y2="889.0" stroke="black"/>
    <text x="492.0" y="904.0" transform="rotate(0.0 492.0, 904.0)" class="dimension">260cm</text>
    <line x1="622.0" y1="867.0" x2="637.0" y2="867.0" stroke="black"/>
    <line x1="622.0" y1="482.0" x2="637.0" y2="482.0" stroke="black"/>
    <line x1="637.0" y1="867.0" x2="637.0" y2="482.0" stroke="black"/>
    <text x="652.0" y="674.5" transform="rotate(90.0 652.0, 674.5)" class="dimension">385cm</text>
  </g>
  <!--Chambre 2-->
  <g id="chambre_2" class="show_hover">
    <polygon points="357.0,867.0 62.0,867.0 62.0,487.0 177.0,487.0 177.0,427.0 357.0,427.0" fill="beige" stroke="red"/>
    <text x="209.5" y="647.0" class="room-name" text-anchor="middle">Chambre 2</text>
    <text x="209.5" y="667.0" text-anchor="middle">12.29 m²</text>
    <line x1="357.0" y1="867.0" x2="357.0" y2="889.0" stroke="black"/>
    <line x1="62.0" y1="867.0" x2="62.0" y2="889.0" stroke="black"/>
    <line x1="357.0" y1="889.0" x2="62.0" y2="889.0" stroke="black"/>
    <text x="209.5" y="904.0" transform="rotate(0.0 209.5, 904.0)" class="dimension">295cm</text>
    <line x1="62.0" y1="867.0" x2="40.0" y2="867.0" stroke="black"/>
    <line x1="62.0" y1="487.0" x2="40.0" y2="487.0" stroke="black"/>
    <line x1="40.0" y1="867.0" x2="40.0" y2="487.0" stroke="black"/>
    <text x="25.0" y="677.0" transform="rotate(90.0 25.0, 677.0)" class="dimension">380cm</text>
    <line x1="62.0" y1="487.0" x2="62.0" y2="472.0" stroke="black"/>
    <line x1="177.0" y1="487.0" x2="177.0" y2="472.0" stroke="black"/>
    <line x1="62.0" y1="472.0" x2="177.0" y2="472.0" stroke="black"/>
    <text x="119.5" y="457.0" transform="rotate(0.0 119.5, 457.0)" class="dimension">115cm</text>
    <line x1="177.0" y1="487.0" x2="162.0" y2="487.0" stroke="black"/>
    <line x1="177.0" y1="427.0" x2="162.0" y2="427.0" stroke="black"/>
    <line x1="162.0" y1="487.0" x2="162.0" y2="427.0" stroke="black"/>
    <text x="147.0" y="457.0" transform="rotate(90.0 147.0, 457.0)" class="dimension">60cm</text>
    <line x1="177.0" y1="427.0" x2="177.0" y2="412.0" stroke="black"/>
    <line x1="357.0" y1="427.0" x2="357.0" y2="412.0" stroke="black"/>
    <line x1="177.0" y1="412.0" x2="357.0" y2="412.0" stroke="black"/>
    <text x="267.0" y="397.0" transform="rotate(0.0 267.0, 397.0)" class="dimension">180cm</text>
    <line x1="357.0" y1="427.0" x2="372.0" y2="427.0" stroke="black"/>
    <line x1="357.0" y1="867.0" x2="372.0" y2="867.0" stroke="black"/>
    <line x1="372.0" y1="427.0" x2="372.0" y2="867.0" stroke="black"/>
    <text x="387.0" y="647.0" transform="rotate(90.0 387.0, 647.0)" class="dimension">440cm</text>
  </g>
  <!--Chambre 1-->
  <g id="chambre_1" class="show_hover">
    <polygon points="177.0,422.0 357.0,422.0 357.0,62.0 62.0,62.0 62.0,482.0 177.0,482.0" fill="beige" stroke="red"/>
    <text x="209.5" y="272.0" class="room-name" text-anchor="middle">Chambre 1</text>
    <text x="209.5" y="292.0" text-anchor="middle">11.31 m²</text>
    <line x1="177.0" y1="422.0" x2="177.0" y2="437.0" stroke="black"/>
    <line x1="357.0" y1="422.0" x2="357.0" y2="437.0" stroke="black"/>
    <line x1="177.0" y1="437.0" x2="357.0" y2="437.0" stroke="black"/>
    <text x="267.0" y="452.0" transform="rotate(0.0 267.0, 452.0)" class="dimension">180cm</text>
    <line x1="357.0" y1="422.0" x2="372.0" y2="422.0" stroke="black"/>
    <line x1="357.0" y1="62.0" x2="372.0" y2="61.99999999999999" stroke="black"/>
    <line x1="372.0" y1="422.0" x2="372.0" y2="61.99999999999999" stroke="black"/>
    <text x="387.0" y="242.0" transform="rotate(90.0 387.0, 242.0)" class="dimension">360cm</text>
    <line x1="357.0" y1="62.0" x2="357.0" y2="40.0" stroke="black"/>
    <line x1="62.0" y1="62.0" x2="61.99999999999999" y2="40.0" stroke="black"/>
    <line x1="357.0" y1="40.0" x2="61.99999999999999" y2="40.0" stroke="black"/>
    <text x="209.5" y="25.0" transform="rotate(0.0 209.5, 25.0)" class="dimension">295cm</text>
    <line x1="62.0" y1="62.0" x2="40.0" y2="62.0" stroke="black"/>
    <line x1="62.0" y1="482.0" x2="40.0" y2="482.0" stroke="black"/>
    <line x1="40.0" y1="62.0" x2="40.0" y2="482.0" stroke="black"/>
    <text x="25.0" y="272.0" transform="rotate(90.0 25.0, 272.0)" class="dimension">420cm</text>
    <line x1="62.0" y1="482.0" x2="62.0" y2="497.0" stroke="black"/>
    <line x1="177.0" y1="482.0" x2="177.0" y2="497.0" stroke="black"/>
    <line x1="62.0" y1="497.0" x2="177.0" y2="497.0" stroke="black"/>
    <text x="119.5" y="512.0" transform="rotate(0.0 119.5, 512.0)" class="dimension">115cm</text>
    <line x1="177.0" y1="482.0" x2="162.0" y2="482.0" stroke="black"/>
    <line x1="177.0" y1="422.0" x2="162.0" y2="422.0" stroke="black"/>
    <line x1="162.0" y1="482.0" x2="162.0" y2="422.0" stroke="black"/>
    <text x="147.0" y="452.0" transform="rotate(90.0 147.0, 452.0)" class="dimension">60cm</text>
  </g>
  <!--Chambre 4-->
  <g id="chambre_4" class="show_hover">
    <polygon points="362.0,62.0 712.0,62.0 712.0,322.0 362.0,322.0" fill="beige" stroke="red"/>
    <text x="537.0" y="192.0" class="room-name" text-anchor="middle">Chambre 4</text>
    <text x="537.0" y="212.0" text-anchor="middle">9.1 m²</text>
    <line x1="362.0" y1="62.0" x2="362.0" y2="40.0" stroke="black"/>
    <line x1="712.0" y1="62.0" x2="712.0" y2="40.0" stroke="black"/>
    <line x1="362.0" y1="40.0" x2="712.0" y2="40.0" stroke="black"/>
    <text x="537.0" y="25.0" transform="rotate(0.0 537.0, 25.0)" class="dimension">350cm</text>
    <line x1="712.0" y1="62.0" x2="727.0" y2="62.0" stroke="black"/>
    <line x1="712.0" y1="322.0" x2="727.0" y2="322.0" stroke="black"/>
    <line x1="727.0" y1="62.0" x2="727.0" y2="322.0" stroke="black"/>
    <text x="742.0" y="192.0" transform="rotate(90.0 742.0, 192.0)" class="dimension">260cm</text>
    <line x1="712.0" y1="322.0" x2="712.0" y2="337.0" stroke="black"/>
    <line x1="362.0" y1="322.0" x2="362.0" y2="337.0" stroke="black"/>
    <line x1="712.0" y1="337.0" x2="362.0" y2="337.0" stroke="black"/>
    <text x="537.0" y="352.0" transform="rotate(0.0 537.0, 352.0)" class="dimension">350cm</text>
    <line x1="362.0" y1="322.0" x2="347.0" y2="322.0" stroke="black"/>
    <line x1="362.0" y1="62.0" x2="347.0" y2="62.0" stroke="black"/>
    <line x1="347.0" y1="322.0" x2="347.0" y2="62.0" stroke="black"/>
    <text x="332.0" y="192.0" transform="rotate(90.0 332.0, 192.0)" class="dimension">260cm</text>
  </g>
  <!--Escalier-->
  <g id="escalier" class="show_hover">
    <polygon points="712.0,327.0 457.0,327.0 457.0,407.0 712.0,407.0" fill="beige" stroke="red"/>
    <text x="584.5" y="367.0" class="room-name" text-anchor="middle">Escalier</text>
    <text x="584.5" y="387.0" text-anchor="middle">2.04 m²</text>
    <line x1="712.0" y1="327.0" x2="712.0" y2="312.0" stroke="black"/>
    <line x1="457.0" y1="327.0" x2="457.0" y2="312.0" stroke="black"/>
    <line x1="712.0" y1="312.0" x2="457.0" y2="312.0" stroke="black"/>
    <text x="584.5" y="297.0" transform="rotate(0.0 584.5, 297.0)" class="dimension">255cm</text>
    <line x1="457.0" y1="327.0" x2="442.0" y2="327.0" stroke="black"/>
    <line x1="457.0" y1="407.0" x2="442.0" y2="407.0" stroke="black"/>
    <line x1="442.0" y1="327.0" x2="442.0" y2="407.0" stroke="black"/>
    <text x="427.0" y="367.0" transform="rotate(90.0 427.0, 367.0)" class="dimension">80cm</text>
    <line x1="457.0" y1="407.0" x2="457.0" y2="422.0" stroke="black"/>
    <line x1="712.0" y1="407.0" x2="712.0" y2="422.0" stroke="black"/>
    <line x1="457.0" y1="422.0" x2="712.0" y2="422.0" stroke="black"/>
    <text x="584.5" y="437.0" transform="rotate(0.0 584.5, 437.0)" class="dimension">255cm</text>
    <line x1="712.0" y1="407.0" x2="727.0" y2="407.0" stroke="black"/>
    <line x1="712.0" y1="327.0" x2="727.0" y2="327.0" stroke="black"/>
    <line x1="727.0" y1="407.0" x2="727.0" y2="327.0" stroke="black"/>
    <text x="742.0" y="367.0" transform="rotate(90.0 742.0, 367.0)" class="dimension">80cm</text>
  </g>
  <!--Salle de bains-->
  <g id="salle_de_bains" class="show_hover">
    <polygon points="717.0,62.0 942.0,62.0 942.0,322.0 717.0,322.0" fill="beige" stroke="red"/>
    <text x="829.5" y="192.0" class="room-name" text-anchor="middle">Salle de bains</text>
    <text x="829.5" y="212.0" text-anchor="middle">5.85 m²</text>
    <line x1="717.0" y1="62.0" x2="717.0" y2="40.0" stroke="black"/>
    <line x1="942.0" y1="62.0" x2="942.0" y2="40.0" stroke="black"/>
    <line x1="717.0" y1="40.0" x2="942.0" y2="40.0" stroke="black"/>
    <text x="829.5" y="25.0" transform="rotate(0.0 829.5, 25.0)" class="dimension">225cm</text>
    <line x1="942.0" y1="62.0" x2="957.0" y2="62.0" stroke="black"/>
    <line x1="942.0" y1="322.0" x2="957.0" y2="322.0" stroke="black"/>
    <line x1="957.0" y1="62.0" x2="957.0" y2="322.0" stroke="black"/>
    <text x="972.0" y="192.0" transform="rotate(90.0 972.0, 192.0)" class="dimension">260cm</text>
    <line x1="942.0" y1="322.0" x2="942.0" y2="337.0" stroke="black"/>
    <line x1="717.0" y1="322.0" x2="717.0" y2="337.0" stroke="black"/>
    <line x1="942.0" y1="337.0" x2="717.0" y2="337.0" stroke="black"/>
    <text x="829.5" y="352.0" transform="rotate(0.0 829.5, 352.0)" class="dimension">225cm</text>
    <line x1="717.0" y1="322.0" x2="702.0" y2="322.0" stroke="black"/>
    <line x1="717.0" y1="62.0" x2="702.0" y2="62.0" stroke="black"/>
    <line x1="702.0" y1="322.0" x2="702.0" y2="62.0" stroke="black"/>
    <text x="687.0" y="192.0" transform="rotate(90.0 687.0, 192.0)" class="dimension">260cm</text>
  </g>
  <!--WC-->
  <g id="wc" class="show_hover">
    <polygon points="942.0,327.0 807.0,327.0 807.0,407.0 942.0,407.0" fill="beige" stroke="red"/>
    <text x="874.5" y="367.0" class="room-name" text-anchor="middle">WC</text>
    <text x="874.5" y="387.0" text-anchor="middle">1.08 m²</text>
    <line x1="942.0" y1="327.0" x2="942.0" y2="312.0" stroke="black"/>
    <line x1="807.0" y1="327.0" x2="807.0" y2="312.0" stroke="black"/>
    <line x1="942.0" y1="312.0" x2="807.0" y2="312.0" stroke="black"/>
    <text x="874.5" y="297.0" transform="rotate(0.0 874.5, 297.0)" class="dimension">135cm</text>
    <line x1="807.0" y1="327.0" x2="792.0" y2="327.0" stroke="black"/>
    <line x1="807.0" y1="407.0" x2="792.0" y2="407.0" stroke="black"/>
    <line x1="792.0" y1="327.0" x2="792.0" y2="407.0" stroke="black"/>
    <text x="777.0" y="367.0" transform="rotate(90.0 777.0, 367.0)" class="dimension">80cm</text>
    <line x1="807.0" y1="407.0" x2="807.0" y2="422.0" stroke="black"/>
    <line x1="942.0" y1="407.0" x2="942.0" y2="422.0" stroke="black"/>
    <line x1="807.0" y1="422.0" x2="942.0" y2="422.0" stroke="black"/>
    <text x="874.5" y="437.0" transform="rotate(0.0 874.5, 437.0)" class="dimension">135cm</text>
    <line x1="942.0" y1="407.0" x2="957.0" y2="407.0" stroke="black"/>
    <line x1="942.0" y1="327.0" x2="957.0" y2="327.0" stroke="black"/>
    <line x1="957.0" y1="407.0" x2="957.0" y2="327.0" stroke="black"/>
    <text x="972.0" y="367.0" transform="rotate(90.0 972.0, 367.0)" class="dimension">80cm</text>
  </g>
  <!--Cuisine-->
  <g id="cuisine" class="show_hover">
    <polygon points="1312.0,322.0 947.0,322.0 947.0,62.0 1312.0,62.0" fill="beige" stroke="red"/>
    <text x="1129.5" y="192.0" class="room-name" text-anchor="middle">Cuisine</text>
    <text x="1129.5" y="212.0" text-anchor="middle">9.49 m²</text>
    <line x1="1312.0" y1="322.0" x2="1312.0" y2="337.0" stroke="black"/>
    <line x1="947.0" y1="322.0" x2="947.0" y2="337.0" stroke="black"/>
    <line x1="1312.0" y1="337.0" x2="947.0" y2="337.0" stroke="black"/>
    <text x="1129.5" y="352.0" transform="rotate(0.0 1129.5, 352.0)" class="dimension">365cm</text>
    <line x1="947.0" y1="322.0" x2="932.0" y2="322.0" stroke="black"/>
    <line x1="947.0" y1="62.0" x2="932.0" y2="62.0" stroke="black"/>
    <line x1="932.0" y1="322.0" x2="932.0" y2="62.0" stroke="black"/>
    <text x="917.0" y="192.0" transform="rotate(90.0 917.0, 192.0)" class="dimension">260cm</text>
    <line x1="947.0" y1="62.0" x2="947.0" y2="40.0" stroke="black"/>
    <line x1="1312.0" y1="62.0" x2="1312.0" y2="40.0" stroke="black"/>
    <line x1="947.0" y1="40.0" x2="1312.0" y2="40.0" stroke="black"/>
    <text x="1129.5" y="25.0" transform="rotate(0.0 1129.5, 25.0)" class="dimension">365cm</text>
    <line x1="1312.0" y1="62.0" x2="1334.0" y2="62.0" stroke="black"/>
    <line x1="1312.0" y1="322.0" x2="1334.0" y2="322.0" stroke="black"/>
    <line x1="1334.0" y1="62.0" x2="1334.0" y2="322.0" stroke="black"/>
    <text x="1349.0" y="192.0" transform="rotate(90.0 1349.0, 192.0)" class="dimension">260cm</text>
  </g>
  <!--Couloir-->
  <g id="couloir" class="show_hover">
    <polygon points="802.0,327.0 802.0,477.0 362.0,477.0 362.0,327.0 457.0,327.0 457.0,407.0 712.0,407.0 712.0,327.0 792.0,327.0" fill="beige" stroke="red"/>
    <text x="582.0" y="402.0" class="room-name" text-anchor="middle">Couloir</text>
    <text x="582.0" y="422.0" text-anchor="middle">4.7235 m²</text>
    <line x1="802.0" y1="327.0" x2="817.0" y2="327.0" stroke="black"/>
    <line x1="802.0" y1="477.0" x2="817.0" y2="477.0" stroke="black"/>
    <line x1="817.0" y1="327.0" x2="817.0" y2="477.0" stroke="black"/>
    <text x="832.0" y="402.0" transform="rotate(90.0 832.0, 402.0)" class="dimension">150cm</text>
    <line x1="802.0" y1="477.0" x2="802.0" y2="492.0" stroke="black"/>
    <line x1="362.0" y1="477.0" x2="362.0" y2="492.0" stroke="black"/>
    <line x1="802.0" y1="492.0" x2="362.0" y2="492.0" stroke="black"/>
    <text x="582.0" y="507.0" transform="rotate(0.0 582.0, 507.0)" class="dimension">440cm</text>
    <line x1="362.0" y1="477.0" x2="347.0" y2="477.0" stroke="black"/>
    <line x1="362.0" y1="327.0" x2="347.0" y2="327.0" stroke="black"/>
    <line x1="347.0" y1="477.0" x2="347.0" y2="327.0" stroke="black"/>
    <text x="332.0" y="402.0" transform="rotate(90.0 332.0, 402.0)" class="dimension">150cm</text>
    <line x1="362.0" y1="327.0" x2="362.0" y2="312.0" stroke="black"/>
    <line x1="457.0" y1="327.0" x2="457.0" y2="312.0" stroke="black"/>
    <line x1="362.0" y1="312.0" x2="457.0" y2="312.0" stroke="black"/>
    <text x="409.5" y="297.0" transform="rotate(0.0 409.5, 297.0)" class="dimension">95cm</text>
    <line x1="457.0" y1="327.0" x2="442.0" y2="327.0" stroke="black"/>
    <line x1="457.0" y1="407.0" x2="442.0" y2="407.0" stroke="black"/>
    <line x1="442.0" y1="327.0" x2="442.0" y2="407.0" stroke="black"/>
    <text x="427.0" y="367.0" transform="rotate(90.0 427.0, 367.0)" class="dimension">80cm</text>
    <line x1="457.0" y1="407.0" x2="457.0" y2="422.0" stroke="black"/>
    <line x1="712.0" y1="407.0" x2="712.0" y2="422.0" stroke="black"/>
    <line x1="457.0" y1="422.0" x2="712.0" y2="422.0" stroke="black"/>
    <text x="584.5" y="437.0" transform="rotate(0.0 584.5, 437.0)" class="dimension">255cm</text>
    <line x1="712.0" y1="407.0" x2="727.0" y2="407.0" stroke="black"/>
    <line x1="712.0" y1="327.0" x2="727.0" y2="327.0" stroke="black"/>
    <line x1="727.0" y1="407.0" x2="727.0" y2="327.0" stroke="black"/>
    <text x="742.0" y="367.0" transform="rotate(90.0 742.0, 367.0)" class="dimension">80cm</text>
    <line x1="712.0" y1="327.0" x2="712.0" y2="312.0" stroke="black"/>
    <line x1="792.0" y1="327.0" x2="792.0" y2="312.0" stroke="black"/>
    <line x1="712.0" y1="312.0" x2="792.0" y2="312.0" stroke="black"/>
    <text x="752.0" y="297.0" transform="rotate(0.0 752.0, 297.0)" class="dimension">80cm</text>
  </g>
  <!--Sejour_0-->
  <polygon points="1312.0,867.0 1312.0,327.0 1324.0,327.0 1324.0,867.0" fill="gray" stroke="black"/>
  <!--Sejour_7-->
  <polygon points="627.0,867.0 1312.0,867.0 1312.0,879.0 627.0,879.0" fill="gray" stroke="black"/>
  <!--Chambre 5_2-->
  <polygon points="362.0,867.0 622.0,867.0 622.0,879.0 362.0,879.0" fill="gray" stroke="black"/>
  <!--Chambre 2_0-->
  <polygon points="357.0,867.0 62.0,867.0 62.0,879.0 357.0,879.0" fill="gray" stroke="black"/>
  <!--Chambre 2_1-->
  <polygon points="62.0,867.0 62.0,487.0 50.0,487.0 50.0,867.0" fill="gray" stroke="black"/>
  <!--Chambre 1_2-->
  <polygon points="357.0,62.0 62.0,62.0 62.0,50.0 357.0,50.0" fill="gray" stroke="black"/>
  <!--Chambre 1_3-->
  <polygon points="62.0,62.0 62.0,482.0 50.0,482.0 50.0,62.0" fill="gray" stroke="black"/>
  <!--Chambre 4_0-->
  <polygon points="362.0,62.0 712.0,62.0 712.0,50.0 362.0,50.0" fill="gray" stroke="black"/>
  <!--Salle de bains_0-->
  <polygon points="717.0,62.0 942.0,62.0 942.0,50.0 717.0,50.0" fill="gray" stroke="black"/>
  <!--Cuisine_2-->
  <polygon points="947.0,62.0 1312.0,62.0 1312.0,50.0 947.0,50.0" fill="gray" stroke="black"/>
  <!--Cuisine_3-->
  <polygon points="1312.0,62.0 1312.0,322.0 1324.0,322.0 1324.0,62.0" fill="gray" stroke="black"/>
  <!--Chambre 5_3_sejour_chambre_5_Chambre 5_3-->
  <polygon points="622.0,867.0 622.0,482.0 627.0,482.0 627.0,867.0" fill="gray" stroke="black"/>
  <!--Chambre 1_0_chambre_2_chambre_1_Chambre 1_0-->
  <polygon points="177.0,422.0 357.0,422.0 357.0,427.0 177.0,427.0" fill="gray" stroke="black"/>
  <!--Chambre 1_4_Chambre 2_2_Chambre 1_4-->
  <polygon points="62.0,482.0 177.0,482.0 177.0,487.0 62.0,487.0" fill="gray" stroke="black"/>
  <!--Chambre 1_5_Chambre 2_3_Chambre 1_5-->
  <polygon points="172.0,487.0 172.0,482.0 172.0,427.0 172.0,422.0 177.0,422.0 177.0,427.0 177.0,482.0 177.0,487.0" fill="gray" stroke="black"/>
  <!--Salle de bains_3_chambre_4_salle_de_bains_Salle de bains_3-->
  <polygon points="712.0,322.0 712.0,62.0 717.0,62.0 717.0,322.0" fill="gray" stroke="black"/>
  <!--WC_2_Sejour_3_WC_2-->
  <polygon points="807.0,407.0 942.0,407.0 947.0,407.0 947.0,412.0 942.0,412.0 807.0,412.0" fill="gray" stroke="black"/>
  <!--WC_3_Sejour_2_WC_3-->
  <polygon points="942.0,412.0 942.0,407.0 942.0,327.0 947.0,327.0 947.0,407.0 947.0,412.0" fill="gray" stroke="black"/>
  <!--Cuisine_0_sejour_cuisine_Cuisine_0-->
  <polygon points="1312.0,327.0 947.0,327.0 947.0,322.0 1312.0,322.0" fill="gray" stroke="black"/>
  <!--Cuisine_1_Salle de bains_1_Cuisine_1-->
  <polygon points="942.0,322.0 942.0,62.0 947.0,62.0 947.0,322.0" fill="gray" stroke="black"/>
  <!--Couloir_0_wc_couloir_Sejour_4_Couloir_0-->
  <polygon points="807.0,327.0 807.0,407.0 807.0,412.0 807.0,477.0 807.0,482.0 802.0,482.0 802.0,477.0 802.0,412.0 802.0,407.0 802.0,327.0" fill="gray" stroke="black"/>
  <!--Couloir_1_Chambre 5_0_Sejour_5_Couloir_1-->
  <polygon points="807.0,482.0 802.0,482.0 627.0,482.0 622.0,482.0 362.0,482.0 362.0,477.0 622.0,477.0 627.0,477.0 802.0,477.0 807.0,477.0" fill="gray" stroke="black"/>
  <!--Couloir_2_Chambre 2_5_chambre_5_chambre_2_Chambre 2_5-->
  <polygon points="357.0,867.0 357.0,482.0 357.0,477.0 357.0,427.0 357.0,327.0 362.0,327.0 362.0,427.0 362.0,477.0 362.0,482.0 362.0,867.0" fill="gray" stroke="black"/>
  <!--Couloir_2_Chambre 4_3_chambre_1_chambre_4_Chambre 4_3-->
  <polygon points="357.0,477.0 357.0,422.0 357.0,327.0 357.0,322.0 357.0,62.0 362.0,62.0 362.0,322.0 362.0,327.0 362.0,422.0 362.0,477.0" fill="gray" stroke="black"/>
  <!--Couloir_2_Chambre 4_3_chambre_1_chambre_4_Chambre 2_5_Couloir_2-->
  <polygon points="357.0,867.0 357.0,477.0 357.0,427.0 357.0,422.0 357.0,327.0 357.0,322.0 357.0,62.0 362.0,62.0 362.0,322.0 362.0,327.0 362.0,422.0 362.0,427.0 362.0,477.0 362.0,867.0" fill="gray" stroke="black"/>
  <!--Couloir_4_Escalier_1_Couloir_4-->
  <polygon points="457.0,327.0 457.0,407.0 452.0,407.0 452.0,327.0" fill="gray" stroke="black"/>
  <!--Couloir_5_Escalier_2_Couloir_5-->
  <polygon points="457.0,407.0 712.0,407.0 712.0,412.0 457.0,412.0" fill="gray" stroke="black"/>
  <!--Couloir_6_Escalier_3_Couloir_6-->
  <polygon points="712.0,407.0 712.0,327.0 717.0,327.0 717.0,407.0" fill="gray" stroke="black"/>
  <!--Couloir_7_WC_0_salle_de_bains_wc_WC_0-->
  <polygon points="712.0,322.0 717.0,322.0 792.0,322.0 807.0,322.0 942.0,322.0 942.0,327.0 807.0,327.0 792.0,327.0 717.0,327.0 712.0,327.0" fill="gray" stroke="black"/>
  <!--Couloir_7_Couloir_3_Escalier_0_chambre_4_escalier_Escalier_0-->
  <polygon points="362.0,322.0 457.0,322.0 712.0,322.0 792.0,322.0 792.0,327.0 712.0,327.0 457.0,327.0 362.0,327.0" fill="gray" stroke="black"/>
  <!--Couloir_7_Couloir_3_Escalier_0_chambre_4_escalier_Couloir_3-->
  <polygon points="362.0,322.0 457.0,322.0 712.0,322.0 792.0,322.0 792.0,327.0 712.0,327.0 457.0,327.0 362.0,327.0" fill="gray" stroke="black"/>
  <!--Couloir_7_Couloir_3_WC_0_salle_de_bains_wc_Escalier_0_chambre_4_escalier_Couloir_7-->
  <polygon points="362.0,322.0 457.0,322.0 712.0,322.0 717.0,322.0 792.0,322.0 807.0,322.0 942.0,322.0 942.0,327.0 807.0,327.0 792.0,327.0 717.0,327.0 712.0,327.0 457.0,327.0 362.0,327.0" fill="gray" stroke="black"/>
  <text x="662.0" y="929.0" text-anchor="middle">Total: 98.90349999999998 m²</text>
</svg>
