<?xml version="1.0" encoding="UTF-8"?>
<!DOCTYPE svg PUBLIC "-//W3C//DTD SVG 1.1//EN" "http://www.w3.org/Graphics/SVG/1.1/DTD/svg11.dtd">
<svg xmlns="http://www.w3.org/2000/svg" width="1424.0" height="979.0">
  <style type="text/css">svg {
    font-family: "Helvetica Neue", Helvetica, Arial, sans-serif;
}

.show_hover {
    opacity: 0.0;
}
.show_hover:hover {
    opacity: 1.0;
}

.room-floor {
    fill: rgba(245, 245, 220, 0.72);
}
.room-name {
    font-weight: bold;
    text-decoration: underline;
}

.dimension {
    font-weight: lighter;
}

.wall {
    fill: darkgrey;
    stroke: #4f4f4f;
}

.window {
    fill: none;
    stroke: blue;
}
.window path {
    opacity: 0.3;
}
.window:hover path {
    opacity:  1.0
}

.door {
    fill: white;
    stroke: maroon;
}
.door path {
    opacity: 0.3;
}
.door:hover path {
    opacity:  1.0
}
</style>
  <!--Sejour-->
  <g id="sejour" class="show_hover">
    <polygon points="1312.0,867.0 1312.0,327.0 1312.0,327.0 947.0,327.0 947.0,327.0 947.0,412.0 947.0,412.0 807.0,412.0 807.0,412.0 807.0,482.0 807.0,482.0 627.0,482.0 627.0,482.0 627.0,867.0 627.0,867.0 1312.0,867.0" class="room-floor"/>
    <text x="969.5" y="597.0" class="room-name" text-anchor="middle">Sejour</text>
    <text x="969.5" y="617.0" text-anchor="middle">33.01 m²</text>
    <g id="segment_24787700">
      <line x1="1312.0" y1="867.0" x2="1334.0" y2="867.0" stroke="black"/>
      <line x1="1312.0" y1="327.0" x2="1334.0" y2="327.0" stroke="black"/>
      <line x1="1334.0" y1="867.0" x2="1334.0" y2="327.0" stroke="black"/>
      <text x="1349.0" y="597.0" text-anchor="middle" transform="rotate(90.0 1349.0, 597.0)" class="dimension">540cm</text>
    </g>
    <g id="segment_28558340">
      <line x1="1312.0" y1="327.0" x2="1312.0" y2="312.0" stroke="black"/>
      <line x1="947.0" y1="327.0" x2="947.0" y2="312.0" stroke="black"/>
      <line x1="1312.0" y1="312.0" x2="947.0" y2="312.0" stroke="black"/>
      <text x="1129.5" y="297.0" text-anchor="middle" transform="rotate(0.0 1129.5, 297.0)" class="dimension">365cm</text>
    </g>
    <g id="segment_28354740">
      <line x1="947.0" y1="327.0" x2="932.0" y2="327.0" stroke="black"/>
      <line x1="947.0" y1="412.0" x2="932.0" y2="412.0" stroke="black"/>
      <line x1="932.0" y1="327.0" x2="932.0" y2="412.0" stroke="black"/>
      <text x="917.0" y="369.5" text-anchor="middle" transform="rotate(90.0 917.0, 369.5)" class="dimension">85cm</text>
    </g>
    <g id="segment_27750060">
      <line x1="947.0" y1="412.0" x2="947.0" y2="397.0" stroke="black"/>
      <line x1="807.0" y1="412.0" x2="807.0" y2="397.0" stroke="black"/>
      <line x1="947.0" y1="397.0" x2="807.0" y2="397.0" stroke="black"/>
      <text x="877.0" y="382.0" text-anchor="middle" transform="rotate(0.0 877.0, 382.0)" class="dimension">140cm</text>
    </g>
    <g id="segment_24840500">
      <line x1="807.0" y1="412.0" x2="792.0" y2="412.0" stroke="black"/>
      <line x1="807.0" y1="482.0" x2="792.0" y2="482.0" stroke="black"/>
      <line x1="792.0" y1="412.0" x2="792.0" y2="482.0" stroke="black"/>
      <text x="777.0" y="447.0" text-anchor="middle" transform="rotate(90.0 777.0, 447.0)" class="dimension">70cm</text>
    </g>
    <g id="segment_28860500">
      <line x1="807.0" y1="482.0" x2="807.0" y2="467.0" stroke="black"/>
      <line x1="627.0" y1="482.0" x2="627.0" y2="467.0" stroke="black"/>
      <line x1="807.0" y1="467.0" x2="627.0" y2="467.0" stroke="black"/>
      <text x="717.0" y="452.0" text-anchor="middle" transform="rotate(0.0 717.0, 452.0)" class="dimension">180cm</text>
    </g>
    <g id="segment_25255580">
      <line x1="627.0" y1="482.0" x2="612.0" y2="482.0" stroke="black"/>
      <line x1="627.0" y1="867.0" x2="612.0" y2="867.0" stroke="black"/>
      <line x1="612.0" y1="482.0" x2="612.0" y2="867.0" stroke="black"/>
      <text x="597.0" y="674.5" text-anchor="middle" transform="rotate(90.0 597.0, 674.5)" class="dimension">385cm</text>
    </g>
    <g id="segment_28450520">
      <line x1="627.0" y1="867.0" x2="627.0" y2="889.0" stroke="black"/>
      <line x1="1312.0" y1="867.0" x2="1312.0" y2="889.0" stroke="black"/>
      <line x1="627.0" y1="889.0" x2="1312.0" y2="889.0" stroke="black"/>
      <text x="969.5" y="904.0" text-anchor="middle" transform="rotate(0.0 969.5, 904.0)" class="dimension">685cm</text>
    </g>
  </g>
  <!--Chambre 5-->
  <g id="chambre_5" class="show_hover">
    <polygon points="622.0,482.0 362.0,482.0 362.0,482.0 362.0,867.0 362.0,867.0 622.0,867.0 622.0,867.0 622.0,482.0" class="room-floor"/>
    <text x="492.0" y="674.5" class="room-name" text-anchor="middle">Chambre 5</text>
    <text x="492.0" y="694.5" text-anchor="middle">10.01 m²</text>
    <g id="segment_28862520">
      <line x1="622.0" y1="482.0" x2="622.0" y2="467.0" stroke="black"/>
      <line x1="362.0" y1="482.0" x2="362.0" y2="467.0" stroke="black"/>
      <line x1="622.0" y1="467.0" x2="362.0" y2="467.0" stroke="black"/>
      <text x="492.0" y="452.0" text-anchor="middle" transform="rotate(0.0 492.0, 452.0)" class="dimension">260cm</text>
    </g>
    <g id="segment_28829780">
      <line x1="362.0" y1="482.0" x2="347.0" y2="482.0" stroke="black"/>
      <line x1="362.0" y1="867.0" x2="347.0" y2="867.0" stroke="black"/>
      <line x1="347.0" y1="482.0" x2="347.0" y2="867.0" stroke="black"/>
      <text x="332.0" y="674.5" text-anchor="middle" transform="rotate(90.0 332.0, 674.5)" class="dimension">385cm</text>
    </g>
    <g id="segment_28493680">
      <line x1="362.0" y1="867.0" x2="362.0" y2="889.0" stroke="black"/>
      <line x1="622.0" y1="867.0" x2="622.0" y2="889.0" stroke="black"/>
      <line x1="362.0" y1="889.0" x2="622.0" y2="889.0" stroke="black"/>
      <text x="492.0" y="904.0" text-anchor="middle" transform="rotate(0.0 492.0, 904.0)" class="dimension">260cm</text>
    </g>
    <g id="segment_25180380">
      <line x1="622.0" y1="867.0" x2="637.0" y2="867.0" stroke="black"/>
      <line x1="622.0" y1="482.0" x2="637.0" y2="482.0" stroke="black"/>
      <line x1="637.0" y1="867.0" x2="637.0" y2="482.0" stroke="black"/>
      <text x="652.0" y="674.5" text-anchor="middle" transform="rotate(90.0 652.0, 674.5)" class="dimension">385cm</text>
    </g>
  </g>
  <!--Chambre 2-->
  <g id="chambre_2" class="show_hover">
    <polygon points="357.0,867.0 62.0,867.0 62.0,867.0 62.0,487.0 62.0,487.0 177.0,487.0 177.0,487.0 177.0,427.0 177.0,427.0 357.0,427.0 357.0,427.0 357.0,867.0" class="room-floor"/>
    <text x="209.5" y="647.0" class="room-name" text-anchor="middle">Chambre 2</text>
    <text x="209.5" y="667.0" text-anchor="middle">12.29 m²</text>
    <g id="segment_23638400">
      <line x1="357.0" y1="867.0" x2="357.0" y2="889.0" stroke="black"/>
      <line x1="62.0" y1="867.0" x2="62.0" y2="889.0" stroke="black"/>
      <line x1="357.0" y1="889.0" x2="62.0" y2="889.0" stroke="black"/>
      <text x="209.5" y="904.0" text-anchor="middle" transform="rotate(0.0 209.5, 904.0)" class="dimension">295cm</text>
    </g>
    <g id="segment_23640500">
      <line x1="62.0" y1="867.0" x2="40.0" y2="867.0" stroke="black"/>
      <line x1="62.0" y1="487.0" x2="40.0" y2="487.0" stroke="black"/>
      <line x1="40.0" y1="867.0" x2="40.0" y2="487.0" stroke="black"/>
      <text x="25.0" y="677.0" text-anchor="middle" transform="rotate(90.0 25.0, 677.0)" class="dimension">380cm</text>
    </g>
    <g id="segment_27686780">
      <line x1="62.0" y1="487.0" x2="62.0" y2="472.0" stroke="black"/>
      <line x1="177.0" y1="487.0" x2="177.0" y2="472.0" stroke="black"/>
      <line x1="62.0" y1="472.0" x2="177.0" y2="472.0" stroke="black"/>
      <text x="119.5" y="457.0" text-anchor="middle" transform="rotate(0.0 119.5, 457.0)" class="dimension">115cm</text>
    </g>
    <g id="segment_28531620">
      <line x1="177.0" y1="487.0" x2="162.0" y2="487.0" stroke="black"/>
      <line x1="177.0" y1="427.0" x2="162.0" y2="427.0" stroke="black"/>
      <line x1="162.0" y1="487.0" x2="162.0" y2="427.0" stroke="black"/>
      <text x="147.0" y="457.0" text-anchor="middle" transform="rotate(90.0 147.0, 457.0)" class="dimension">60cm</text>
    </g>
    <g id="segment_27238260">
      <line x1="177.0" y1="427.0" x2="177.0" y2="412.0" stroke="black"/>
      <line x1="357.0" y1="427.0" x2="357.0" y2="412.0" stroke="black"/>
      <line x1="177.0" y1="412.0" x2="357.0" y2="412.0" stroke="black"/>
      <text x="267.0" y="397.0" text-anchor="middle" transform="rotate(0.0 267.0, 397.0)" class="dimension">180cm</text>
    </g>
    <g id="segment_28786960">
      <line x1="357.0" y1="427.0" x2="372.0" y2="427.0" stroke="black"/>
      <line x1="357.0" y1="867.0" x2="372.0" y2="867.0" stroke="black"/>
      <line x1="372.0" y1="427.0" x2="372.0" y2="867.0" stroke="black"/>
      <text x="387.0" y="647.0" text-anchor="middle" transform="rotate(90.0 387.0, 647.0)" class="dimension">440cm</text>
    </g>
  </g>
  <!--Chambre 1-->
  <g id="chambre_1" class="show_hover">
    <polygon points="177.0,422.0 357.0,422.0 357.0,422.0 357.0,62.0 357.0,62.0 62.0,62.0 62.0,62.0 62.0,482.0 62.0,482.0 177.0,482.0 177.0,482.0 177.0,422.0" class="room-floor"/>
    <text x="209.5" y="272.0" class="room-name" text-anchor="middle">Chambre 1</text>
    <text x="209.5" y="292.0" text-anchor="middle">11.31 m²</text>
    <g id="segment_27230580">
      <line x1="177.0" y1="422.0" x2="177.0" y2="437.0" stroke="black"/>
      <line x1="357.0" y1="422.0" x2="357.0" y2="437.0" stroke="black"/>
      <line x1="177.0" y1="437.0" x2="357.0" y2="437.0" stroke="black"/>
      <text x="267.0" y="452.0" text-anchor="middle" transform="rotate(0.0 267.0, 452.0)" class="dimension">180cm</text>
    </g>
    <g id="segment_25708860">
      <line x1="357.0" y1="422.0" x2="372.0" y2="422.0" stroke="black"/>
      <line x1="357.0" y1="62.0" x2="372.0" y2="61.99999999999999" stroke="black"/>
      <line x1="372.0" y1="422.0" x2="372.0" y2="61.99999999999999" stroke="black"/>
      <text x="387.0" y="242.0" text-anchor="middle" transform="rotate(90.0 387.0, 242.0)" class="dimension">360cm</text>
    </g>
    <g id="segment_28558980">
      <line x1="357.0" y1="62.0" x2="357.0" y2="40.0" stroke="black"/>
      <line x1="62.0" y1="62.0" x2="61.99999999999999" y2="40.0" stroke="black"/>
      <line x1="357.0" y1="40.0" x2="61.99999999999999" y2="40.0" stroke="black"/>
      <text x="209.5" y="25.0" text-anchor="middle" transform="rotate(0.0 209.5, 25.0)" class="dimension">295cm</text>
    </g>
    <g id="segment_28558440">
      <line x1="62.0" y1="62.0" x2="40.0" y2="62.0" stroke="black"/>
      <line x1="62.0" y1="482.0" x2="40.0" y2="482.0" stroke="black"/>
      <line x1="40.0" y1="62.0" x2="40.0" y2="482.0" stroke="black"/>
      <text x="25.0" y="272.0" text-anchor="middle" transform="rotate(90.0 25.0, 272.0)" class="dimension">420cm</text>
    </g>
    <g id="segment_27670600">
      <line x1="62.0" y1="482.0" x2="62.0" y2="497.0" stroke="black"/>
      <line x1="177.0" y1="482.0" x2="177.0" y2="497.0" stroke="black"/>
      <line x1="62.0" y1="497.0" x2="177.0" y2="497.0" stroke="black"/>
      <text x="119.5" y="512.0" text-anchor="middle" transform="rotate(0.0 119.5, 512.0)" class="dimension">115cm</text>
    </g>
    <g id="segment_28557360">
      <line x1="177.0" y1="482.0" x2="192.0" y2="482.0" stroke="black"/>
      <line x1="177.0" y1="422.0" x2="192.0" y2="422.0" stroke="black"/>
      <line x1="192.0" y1="482.0" x2="192.0" y2="422.0" stroke="black"/>
      <text x="207.0" y="452.0" text-anchor="middle" transform="rotate(90.0 207.0, 452.0)" class="dimension">60cm</text>
    </g>
  </g>
  <!--Chambre 4-->
  <g id="chambre_4" class="show_hover">
    <polygon points="362.0,62.0 712.0,62.0 712.0,62.0 712.0,322.0 712.0,322.0 362.0,322.0 362.0,322.0 362.0,62.0" class="room-floor"/>
    <text x="537.0" y="192.0" class="room-name" text-anchor="middle">Chambre 4</text>
    <text x="537.0" y="212.0" text-anchor="middle">9.1 m²</text>
    <g id="segment_28630420">
      <line x1="362.0" y1="62.0" x2="362.0" y2="40.0" stroke="black"/>
      <line x1="712.0" y1="62.0" x2="712.0" y2="40.0" stroke="black"/>
      <line x1="362.0" y1="40.0" x2="712.0" y2="40.0" stroke="black"/>
      <text x="537.0" y="25.0" text-anchor="middle" transform="rotate(0.0 537.0, 25.0)" class="dimension">350cm</text>
    </g>
    <g id="segment_28705760">
      <line x1="712.0" y1="62.0" x2="727.0" y2="62.0" stroke="black"/>
      <line x1="712.0" y1="322.0" x2="727.0" y2="322.0" stroke="black"/>
      <line x1="727.0" y1="62.0" x2="727.0" y2="322.0" stroke="black"/>
      <text x="742.0" y="192.0" text-anchor="middle" transform="rotate(90.0 742.0, 192.0)" class="dimension">260cm</text>
    </g>
    <g id="segment_28607420">
      <line x1="712.0" y1="322.0" x2="712.0" y2="337.0" stroke="black"/>
      <line x1="362.0" y1="322.0" x2="362.0" y2="337.0" stroke="black"/>
      <line x1="712.0" y1="337.0" x2="362.0" y2="337.0" stroke="black"/>
      <text x="537.0" y="352.0" text-anchor="middle" transform="rotate(0.0 537.0, 352.0)" class="dimension">350cm</text>
    </g>
    <g id="segment_25659560">
      <line x1="362.0" y1="322.0" x2="347.0" y2="322.0" stroke="black"/>
      <line x1="362.0" y1="62.0" x2="347.0" y2="62.0" stroke="black"/>
      <line x1="347.0" y1="322.0" x2="347.0" y2="62.0" stroke="black"/>
      <text x="332.0" y="192.0" text-anchor="middle" transform="rotate(90.0 332.0, 192.0)" class="dimension">260cm</text>
    </g>
  </g>
  <!--Escalier-->
  <g id="escalier" class="show_hover">
    <polygon points="712.0,327.0 457.0,327.0 457.0,327.0 457.0,407.0 457.0,407.0 712.0,407.0 712.0,407.0 712.0,327.0" class="room-floor"/>
    <text x="584.5" y="367.0" class="room-name" text-anchor="middle">Escalier</text>
    <text x="584.5" y="387.0" text-anchor="middle">2.04 m²</text>
    <g id="segment_28590140">
      <line x1="712.0" y1="327.0" x2="712.0" y2="312.0" stroke="black"/>
      <line x1="457.0" y1="327.0" x2="457.0" y2="312.0" stroke="black"/>
      <line x1="712.0" y1="312.0" x2="457.0" y2="312.0" stroke="black"/>
      <text x="584.5" y="297.0" text-anchor="middle" transform="rotate(0.0 584.5, 297.0)" class="dimension">255cm</text>
    </g>
    <g id="segment_28642580">
      <line x1="457.0" y1="327.0" x2="442.0" y2="327.0" stroke="black"/>
      <line x1="457.0" y1="407.0" x2="442.0" y2="407.0" stroke="black"/>
      <line x1="442.0" y1="327.0" x2="442.0" y2="407.0" stroke="black"/>
      <text x="427.0" y="367.0" text-anchor="middle" transform="rotate(90.0 427.0, 367.0)" class="dimension">80cm</text>
    </g>
    <g id="segment_28642040">
      <line x1="457.0" y1="407.0" x2="457.0" y2="422.0" stroke="black"/>
      <line x1="712.0" y1="407.0" x2="712.0" y2="422.0" stroke="black"/>
      <line x1="457.0" y1="422.0" x2="712.0" y2="422.0" stroke="black"/>
      <text x="584.5" y="437.0" text-anchor="middle" transform="rotate(0.0 584.5, 437.0)" class="dimension">255cm</text>
    </g>
    <g id="segment_28641500">
      <line x1="712.0" y1="407.0" x2="727.0" y2="407.0" stroke="black"/>
      <line x1="712.0" y1="327.0" x2="727.0" y2="327.0" stroke="black"/>
      <line x1="727.0" y1="407.0" x2="727.0" y2="327.0" stroke="black"/>
      <text x="742.0" y="367.0" text-anchor="middle" transform="rotate(90.0 742.0, 367.0)" class="dimension">80cm</text>
    </g>
  </g>
  <!--Salle de bains-->
  <g id="salle_de_bains" class="show_hover">
    <polygon points="717.0,62.0 942.0,62.0 942.0,62.0 942.0,322.0 942.0,322.0 717.0,322.0 717.0,322.0 717.0,62.0" class="room-floor"/>
    <text x="829.5" y="192.0" class="room-name" text-anchor="middle">Salle de bains</text>
    <text x="829.5" y="212.0" text-anchor="middle">5.85 m²</text>
    <g id="segment_28657060">
      <line x1="717.0" y1="62.0" x2="717.0" y2="40.0" stroke="black"/>
      <line x1="942.0" y1="62.0" x2="942.0" y2="40.0" stroke="black"/>
      <line x1="717.0" y1="40.0" x2="942.0" y2="40.0" stroke="black"/>
      <text x="829.5" y="25.0" text-anchor="middle" transform="rotate(0.0 829.5, 25.0)" class="dimension">225cm</text>
    </g>
    <g id="segment_27248200">
      <line x1="942.0" y1="62.0" x2="957.0" y2="62.0" stroke="black"/>
      <line x1="942.0" y1="322.0" x2="957.0" y2="322.0" stroke="black"/>
      <line x1="957.0" y1="62.0" x2="957.0" y2="322.0" stroke="black"/>
      <text x="972.0" y="192.0" text-anchor="middle" transform="rotate(90.0 972.0, 192.0)" class="dimension">260cm</text>
    </g>
    <g id="segment_27602020">
      <line x1="942.0" y1="322.0" x2="942.0" y2="337.0" stroke="black"/>
      <line x1="717.0" y1="322.0" x2="717.0" y2="337.0" stroke="black"/>
      <line x1="942.0" y1="337.0" x2="717.0" y2="337.0" stroke="black"/>
      <text x="829.5" y="352.0" text-anchor="middle" transform="rotate(0.0 829.5, 352.0)" class="dimension">225cm</text>
    </g>
    <g id="segment_28690020">
      <line x1="717.0" y1="322.0" x2="702.0" y2="322.0" stroke="black"/>
      <line x1="717.0" y1="62.0" x2="702.0" y2="62.0" stroke="black"/>
      <line x1="702.0" y1="322.0" x2="702.0" y2="62.0" stroke="black"/>
      <text x="687.0" y="192.0" text-anchor="middle" transform="rotate(90.0 687.0, 192.0)" class="dimension">260cm</text>
    </g>
  </g>
  <!--WC-->
  <g id="wc" class="show_hover">
    <polygon points="942.0,327.0 807.0,327.0 807.0,327.0 807.0,407.0 807.0,407.0 942.0,407.0 942.0,407.0 942.0,327.0" class="room-floor"/>
    <text x="874.5" y="367.0" class="room-name" text-anchor="middle">WC</text>
    <text x="874.5" y="387.0" text-anchor="middle">1.08 m²</text>
    <g id="segment_27572260">
      <line x1="942.0" y1="327.0" x2="942.0" y2="312.0" stroke="black"/>
      <line x1="807.0" y1="327.0" x2="807.0" y2="312.0" stroke="black"/>
      <line x1="942.0" y1="312.0" x2="807.0" y2="312.0" stroke="black"/>
      <text x="874.5" y="297.0" text-anchor="middle" transform="rotate(0.0 874.5, 297.0)" class="dimension">135cm</text>
    </g>
    <g id="segment_25192500">
      <line x1="807.0" y1="327.0" x2="792.0" y2="327.0" stroke="black"/>
      <line x1="807.0" y1="407.0" x2="792.0" y2="407.0" stroke="black"/>
      <line x1="792.0" y1="327.0" x2="792.0" y2="407.0" stroke="black"/>
      <text x="777.0" y="367.0" text-anchor="middle" transform="rotate(90.0 777.0, 367.0)" class="dimension">80cm</text>
    </g>
    <g id="segment_27716660">
      <line x1="807.0" y1="407.0" x2="807.0" y2="422.0" stroke="black"/>
      <line x1="942.0" y1="407.0" x2="942.0" y2="422.0" stroke="black"/>
      <line x1="807.0" y1="422.0" x2="942.0" y2="422.0" stroke="black"/>
      <text x="874.5" y="437.0" text-anchor="middle" transform="rotate(0.0 874.5, 437.0)" class="dimension">135cm</text>
    </g>
    <g id="segment_28322140">
      <line x1="942.0" y1="407.0" x2="957.0" y2="407.0" stroke="black"/>
      <line x1="942.0" y1="327.0" x2="957.0" y2="327.0" stroke="black"/>
      <line x1="957.0" y1="407.0" x2="957.0" y2="327.0" stroke="black"/>
      <text x="972.0" y="367.0" text-anchor="middle" transform="rotate(90.0 972.0, 367.0)" class="dimension">80cm</text>
    </g>
  </g>
  <!--Cuisine-->
  <g id="cuisine" class="show_hover">
    <polygon points="1312.0,322.0 947.0,322.0 947.0,322.0 947.0,62.0 947.0,62.0 1312.0,62.0 1312.0,62.0 1312.0,322.0" class="room-floor"/>
    <text x="1129.5" y="192.0" class="room-name" text-anchor="middle">Cuisine</text>
    <text x="1129.5" y="212.0" text-anchor="middle">9.49 m²</text>
    <g id="segment_28543060">
      <line x1="1312.0" y1="322.0" x2="1312.0" y2="337.0" stroke="black"/>
      <line x1="947.0" y1="322.0" x2="947.0" y2="337.0" stroke="black"/>
      <line x1="1312.0" y1="337.0" x2="947.0" y2="337.0" stroke="black"/>
      <text x="1129.5" y="352.0" text-anchor="middle" transform="rotate(0.0 1129.5, 352.0)" class="dimension">365cm</text>
    </g>
    <g id="segment_27232740">
      <line x1="947.0" y1="322.0" x2="932.0" y2="322.0" stroke="black"/>
      <line x1="947.0" y1="62.0" x2="932.0" y2="62.0" stroke="black"/>
      <line x1="932.0" y1="322.0" x2="932.0" y2="62.0" stroke="black"/>
      <text x="917.0" y="192.0" text-anchor="middle" transform="rotate(90.0 917.0, 192.0)" class="dimension">260cm</text>
    </g>
    <g id="segment_28707380">
      <line x1="947.0" y1="62.0" x2="947.0" y2="40.0" stroke="black"/>
      <line x1="1312.0" y1="62.0" x2="1312.0" y2="40.0" stroke="black"/>
      <line x1="947.0" y1="40.0" x2="1312.0" y2="40.0" stroke="black"/>
      <text x="1129.5" y="25.0" text-anchor="middle" transform="rotate(0.0 1129.5, 25.0)" class="dimension">365cm</text>
    </g>
    <g id="segment_28706840">
      <line x1="1312.0" y1="62.0" x2="1334.0" y2="62.0" stroke="black"/>
      <line x1="1312.0" y1="322.0" x2="1334.0" y2="322.0" stroke="black"/>
      <line x1="1334.0" y1="62.0" x2="1334.0" y2="322.0" stroke="black"/>
      <text x="1349.0" y="192.0" text-anchor="middle" transform="rotate(90.0 1349.0, 192.0)" class="dimension">260cm</text>
    </g>
  </g>
  <!--Couloir-->
  <g id="couloir" class="show_hover">
    <polygon points="802.0,327.0 802.0,477.0 802.0,477.0 362.0,477.0 362.0,477.0 362.0,327.0 362.0,327.0 457.0,327.0 457.0,327.0 457.0,407.0 457.0,407.0 712.0,407.0 712.0,407.0 712.0,327.0 712.0,327.0 792.0,327.0" class="room-floor"/>
    <text x="582.0" y="402.0" class="room-name" text-anchor="middle">Couloir</text>
    <text x="582.0" y="422.0" text-anchor="middle">4.72 m²</text>
    <g id="segment_24785160">
      <line x1="802.0" y1="327.0" x2="817.0" y2="327.0" stroke="black"/>
      <line x1="802.0" y1="477.0" x2="817.0" y2="477.0" stroke="black"/>
      <line x1="817.0" y1="327.0" x2="817.0" y2="477.0" stroke="black"/>
      <text x="832.0" y="402.0" text-anchor="middle" transform="rotate(90.0 832.0, 402.0)" class="dimension">150cm</text>
    </g>
    <g id="segment_28830360">
      <line x1="802.0" y1="477.0" x2="802.0" y2="492.0" stroke="black"/>
      <line x1="362.0" y1="477.0" x2="362.0" y2="492.0" stroke="black"/>
      <line x1="802.0" y1="492.0" x2="362.0" y2="492.0" stroke="black"/>
      <text x="582.0" y="507.0" text-anchor="middle" transform="rotate(0.0 582.0, 507.0)" class="dimension">440cm</text>
    </g>
    <g id="segment_28844540">
      <line x1="362.0" y1="477.0" x2="347.0" y2="477.0" stroke="black"/>
      <line x1="362.0" y1="327.0" x2="347.0" y2="327.0" stroke="black"/>
      <line x1="347.0" y1="477.0" x2="347.0" y2="327.0" stroke="black"/>
      <text x="332.0" y="402.0" text-anchor="middle" transform="rotate(90.0 332.0, 402.0)" class="dimension">150cm</text>
    </g>
    <g id="segment_28623400">
      <line x1="362.0" y1="327.0" x2="362.0" y2="312.0" stroke="black"/>
      <line x1="457.0" y1="327.0" x2="457.0" y2="312.0" stroke="black"/>
      <line x1="362.0" y1="312.0" x2="457.0" y2="312.0" stroke="black"/>
      <text x="409.5" y="297.0" text-anchor="middle" transform="rotate(0.0 409.5, 297.0)" class="dimension">95cm</text>
    </g>
    <g id="segment_28743540">
      <line x1="457.0" y1="327.0" x2="472.0" y2="327.0" stroke="black"/>
      <line x1="457.0" y1="407.0" x2="472.0" y2="407.0" stroke="black"/>
      <line x1="472.0" y1="327.0" x2="472.0" y2="407.0" stroke="black"/>
      <text x="487.0" y="367.0" text-anchor="middle" transform="rotate(90.0 487.0, 367.0)" class="dimension">80cm</text>
    </g>
    <g id="segment_28743000">
      <line x1="457.0" y1="407.0" x2="457.0" y2="392.0" stroke="black"/>
      <line x1="712.0" y1="407.0" x2="712.0" y2="392.0" stroke="black"/>
      <line x1="457.0" y1="392.0" x2="712.0" y2="392.0" stroke="black"/>
      <text x="584.5" y="377.0" text-anchor="middle" transform="rotate(0.0 584.5, 377.0)" class="dimension">255cm</text>
    </g>
    <g id="segment_28742460">
      <line x1="712.0" y1="407.0" x2="697.0" y2="407.0" stroke="black"/>
      <line x1="712.0" y1="327.0" x2="697.0" y2="327.0" stroke="black"/>
      <line x1="697.0" y1="407.0" x2="697.0" y2="327.0" stroke="black"/>
      <text x="682.0" y="367.0" text-anchor="middle" transform="rotate(90.0 682.0, 367.0)" class="dimension">80cm</text>
    </g>
    <g id="segment_27621140">
      <line x1="712.0" y1="327.0" x2="712.0" y2="312.0" stroke="black"/>
      <line x1="792.0" y1="327.0" x2="792.0" y2="312.0" stroke="black"/>
      <line x1="712.0" y1="312.0" x2="792.0" y2="312.0" stroke="black"/>
      <text x="752.0" y="297.0" text-anchor="middle" transform="rotate(0.0 752.0, 297.0)" class="dimension">80cm</text>
    </g>
  </g>
  <!--Sejour_0-->
  <g id="wall_sejour_0">
    <polygon points="1312.0,867.0 1312.0,327.0 1324.0,327.0 1324.0,867.0" class="wall"/>
  </g>
  <!--Sejour_7-->
  <g id="wall_sejour_7">
    <polygon points="627.0,867.0 1312.0,867.0 1312.0,879.0 627.0,879.0" class="wall"/>
  </g>
  <!--Chambre 5_2-->
  <g id="wall_chambre_5_2">
    <polygon points="362.0,867.0 622.0,867.0 622.0,879.0 362.0,879.0" class="wall"/>
  </g>
  <!--Chambre 2_0-->
  <g id="wall_chambre_2_0">
    <polygon points="357.0,867.0 62.0,867.0 62.0,879.0 357.0,879.0" class="wall"/>
  </g>
  <!--Chambre 2_1-->
  <g id="wall_chambre_2_1">
    <polygon points="62.0,867.0 62.0,487.0 50.0,487.0 50.0,867.0" class="wall"/>
  </g>
  <!--Chambre 2_3-->
  <g id="wall_chambre_2_3">
    <polygon points="177.0,487.0 177.0,427.0 172.0,427.0 172.0,487.0" class="wall"/>
  </g>
  <!--Chambre 1_2-->
  <g id="wall_chambre_1_2">
    <polygon points="357.0,62.0 62.0,62.0 62.0,50.0 357.0,50.0" class="wall"/>
  </g>
  <!--Chambre 1_3-->
  <g id="wall_chambre_1_3">
    <polygon points="62.0,62.0 62.0,482.0 50.0,482.0 50.0,62.0" class="wall"/>
  </g>
  <!--Chambre 1_5-->
  <g id="wall_chambre_1_5">
    <polygon points="177.0,482.0 177.0,422.0 182.0,422.0 182.0,482.0" class="wall"/>
  </g>
  <!--Chambre 4_0-->
  <g id="wall_chambre_4_0">
    <polygon points="362.0,62.0 712.0,62.0 712.0,50.0 362.0,50.0" class="wall"/>
  </g>
  <!--Escalier_1-->
  <g id="wall_escalier_1">
    <polygon points="457.0,327.0 457.0,407.0 452.0,407.0 452.0,327.0" class="wall"/>
  </g>
  <!--Escalier_2-->
  <g id="wall_escalier_2">
    <polygon points="457.0,407.0 712.0,407.0 712.0,412.0 457.0,412.0" class="wall"/>
  </g>
  <!--Escalier_3-->
  <g id="wall_escalier_3">
    <polygon points="712.0,407.0 712.0,327.0 717.0,327.0 717.0,407.0" class="wall"/>
  </g>
  <!--Salle de bains_0-->
  <g id="wall_salle_de_bains_0">
    <polygon points="717.0,62.0 942.0,62.0 942.0,50.0 717.0,50.0" class="wall"/>
  </g>
  <!--Cuisine_2-->
  <g id="wall_cuisine_2">
    <polygon points="947.0,62.0 1312.0,62.0 1312.0,50.0 947.0,50.0" class="wall"/>
  </g>
  <!--Cuisine_3-->
  <g id="wall_cuisine_3">
    <polygon points="1312.0,62.0 1312.0,322.0 1324.0,322.0 1324.0,62.0" class="wall"/>
  </g>
  <!--Couloir_4-->
  <g id="wall_couloir_4">
    <polygon points="457.0,327.0 457.0,407.0 462.0,407.0 462.0,327.0" class="wall"/>
  </g>
  <!--Couloir_5-->
  <g id="wall_couloir_5">
    <polygon points="457.0,407.0 712.0,407.0 712.0,402.0 457.0,402.0" class="wall"/>
  </g>
  <!--Couloir_6-->
  <g id="wall_couloir_6">
    <polygon points="712.0,407.0 712.0,327.0 707.0,327.0 707.0,407.0" class="wall"/>
  </g>
  <!--sejour_cuisine_Cuisine_0-->
  <g id="wall_sejour_cuisine_cuisine_0">
    <polygon points="1312.0,327.0 947.0,327.0 947.0,322.0 1312.0,322.0" class="wall"/>
  </g>
  <!--Sejour_2_WC_3-->
  <g id="wall_sejour_2_wc_3">
    <polygon points="947.0,327.0 947.0,407.0 947.0,412.0 942.0,412.0 942.0,407.0 942.0,327.0" class="wall"/>
  </g>
  <!--Sejour_3_WC_2-->
  <g id="wall_sejour_3_wc_2">
    <polygon points="947.0,412.0 942.0,412.0 807.0,412.0 807.0,407.0 942.0,407.0 947.0,407.0" class="wall"/>
  </g>
  <!--sejour_chambre_5_Chambre 5_3-->
  <g id="wall_sejour_chambre_5_chambre_5_3">
    <polygon points="627.0,482.0 627.0,867.0 622.0,867.0 622.0,482.0" class="wall"/>
  </g>
  <!--Chambre 5_0_Sejour_5_Couloir_1-->
  <g id="wall_chambre_5_0_sejour_5_couloir_1">
    <polygon points="807.0,482.0 802.0,482.0 627.0,482.0 622.0,482.0 362.0,482.0 362.0,477.0 622.0,477.0 627.0,477.0 802.0,477.0 807.0,477.0" class="wall"/>
  </g>
  <!--Chambre 2_2_Chambre 1_4-->
  <g id="wall_chambre_2_2_chambre_1_4">
    <polygon points="62.0,482.0 177.0,482.0 177.0,487.0 62.0,487.0" class="wall"/>
  </g>
  <!--chambre_2_chambre_1_Chambre 1_0-->
  <g id="wall_chambre_2_chambre_1_chambre_1_0">
    <polygon points="177.0,422.0 357.0,422.0 357.0,427.0 177.0,427.0" class="wall"/>
  </g>
  <!--chambre_1_chambre_4_Chambre 4_3-->
  <g id="wall_chambre_1_chambre_4_chambre_4_3">
    <polygon points="357.0,422.0 357.0,322.0 357.0,62.0 362.0,62.0 362.0,322.0 362.0,422.0" class="wall"/>
  </g>
  <!--chambre_4_salle_de_bains_Salle de bains_3-->
  <g id="wall_chambre_4_salle_de_bains_salle_de_bains_3">
    <polygon points="717.0,62.0 717.0,322.0 712.0,322.0 712.0,62.0" class="wall"/>
  </g>
  <!--Salle de bains_1_Cuisine_1-->
  <g id="wall_salle_de_bains_1_cuisine_1">
    <polygon points="947.0,62.0 947.0,322.0 942.0,322.0 942.0,62.0" class="wall"/>
  </g>
  <!--wc_couloir_Sejour_4_Couloir_0-->
  <g id="wall_wc_couloir_sejour_4_couloir_0">
    <polygon points="807.0,327.0 807.0,407.0 807.0,412.0 807.0,477.0 807.0,482.0 802.0,482.0 802.0,477.0 802.0,412.0 802.0,407.0 802.0,327.0" class="wall"/>
  </g>
  <!--Couloir_2_chambre_5_chambre_2_Chambre 2_5-->
  <g id="wall_couloir_2_chambre_5_chambre_2_chambre_2_5">
    <polygon points="357.0,867.0 357.0,482.0 357.0,477.0 357.0,427.0 357.0,327.0 362.0,327.0 362.0,427.0 362.0,477.0 362.0,482.0 362.0,867.0" class="wall"/>
  </g>
  <!--Couloir_3_chambre_4_escalier_Escalier_0-->
  <g id="wall_couloir_3_chambre_4_escalier_escalier_0">
    <polygon points="362.0,322.0 457.0,322.0 712.0,322.0 712.0,327.0 457.0,327.0 362.0,327.0" class="wall"/>
  </g>
  <!--Couloir_7_salle_de_bains_wc_WC_0-->
  <g id="wall_couloir_7_salle_de_bains_wc_wc_0">
    <polygon points="712.0,322.0 717.0,322.0 792.0,322.0 807.0,322.0 942.0,322.0 942.0,327.0 807.0,327.0 792.0,327.0 717.0,327.0 712.0,327.0" class="wall"/>
  </g>
  <text x="662.0" y="929.0" text-anchor="middle">Total: 98.9 m²</text>
</svg>
