<?xml version="1.0" encoding="UTF-8"?>
<!DOCTYPE svg PUBLIC "-//W3C//DTD SVG 1.1//EN" "http://www.w3.org/Graphics/SVG/1.1/DTD/svg11.dtd">
<svg xmlns="http://www.w3.org/2000/svg" width="2000" height="2000">
  <style type="text/css">svg {
    font-family: "Helvetica Neue", Helvetica, Arial, sans-serif;
}

/** INTERACTIONS **/
.component-panel {
    fill: url(#steel_gradient);
    stroke: #dcdcdc;
    stroke-width: 1px;
}
.component-title {
    font-family: Arial, sans-serif;
    font-weight:bold;
}
.button {
    fill: url(#steel_gradient);
    stroke: #dcdcdc;
    stroke-width: 1px;
    pointer-events: all;
    cursor: pointer;
}
.button:hover {
    fill: url(#steel_gradient_hover);
}
.button-content {
    fill: #666666;
    pointer-events: none;
    font-family: Arial, sans-serif;
    font-weight:bold;
}

.show_hover {
    opacity: 0.0;
}

.show_hover:hover {
    opacity: 1.0;
}

.room-stroke {
    fill: rgba(255, 255, 255, 0);
    stroke: #4f4f4f;
    stroke-width: 5px;
}

.room-floor {
    fill:  url(#steel_gradient); /*rgba(245, 245, 220, 0.72);*/
    opacity: 0.8;
    stroke-width: 3px;
}

.room-name {
    font-weight: bold;
    text-decoration: underline;
}

.dimension {
    font-weight: lighter;
}

.wall {
    fill: darkgrey;
}

.window {
    fill: none;
    stroke: blue;
}

.window path {
    opacity: 0.3;
}

.window:hover path {
    opacity: 1.0
}

.door {
    fill: white;
    stroke: maroon;
}

.door path {
    opacity: 0.3;
}

.door:hover path {
    opacity: 1.0
}
</style>
  <script type="text/ecmascript">function floors_interaction(floor_id)
{
    var floors = document.getElementsByClassName('floor');
    console.log(floors);
    [].forEach.call(floors, function(floor) {
       if(floor.id == floor_id) {
           floor.style.display = 'inherit';
       }
        else {
           floor.style.display = 'none';
       }
    });
}
</script>
  <defs><linearGradient id="steel_gradient" x1="50%" y1="100%" x2="50%" y2="0%">
  <stop offset="0%" style="stop-color:rgb(255,255,255);stop-opacity:1"/>
  <stop offset="5%" style="stop-color:rgb(255,255,255);stop-opacity:1"/>
  <stop offset="100%" style="stop-color:rgb(246,246,246);stop-opacity:1"/>
</linearGradient>
<linearGradient id="steel_gradient_hover" x1="50%" y1="100%" x2="50%" y2="0%">
  <stop offset="0%" style="stop-color:rgb(246,246,246);stop-opacity:1"/>
  <stop offset="5%" style="stop-color:rgb(246,246,246);stop-opacity:1"/>
  <stop offset="100%" style="stop-color:rgb(255,255,255);stop-opacity:1"/>
</linearGradient>
</defs>
  <g id="root_component"/>
  <g id="root_content" transform="translate(140)">
    <g id="floor_house" class="floor">
      <polygon points="1312.0,867.0 1312.0,327.0 947.0,327.0 947.0,412.0 807.0,412.0 807.0,482.0 627.0,482.0 627.0,867.0" class="room-stroke"/>
      <g id="room_sejour" class="show_hover">
        <polygon points="1312.0,867.0 1312.0,327.0 947.0,327.0 947.0,412.0 807.0,412.0 807.0,482.0 627.0,482.0 627.0,867.0" class="room-floor"/>
        <text x="969.5" y="597.0" class="room-name" text-anchor="middle">Sejour</text>
        <text x="969.5" y="617.0" text-anchor="middle">33.01 m²</text>
        <g id="segment_24930640">
          <line x1="1312.0" y1="867.0" x2="1344.0" y2="867.0" stroke="black"/>
          <line x1="1312.0" y1="327.0" x2="1344.0" y2="327.0" stroke="black"/>
          <line x1="1344.0" y1="867.0" x2="1344.0" y2="327.0" stroke="black"/>
          <text x="1359.0" y="597.0" text-anchor="middle" transform="rotate(90.0 1359.0, 597.0)" class="dimension">540cm</text>
        </g>
        <g id="segment_23035040">
          <line x1="1312.0" y1="327.0" x2="1312.0" y2="302.0" stroke="black"/>
          <line x1="947.0" y1="327.0" x2="947.0" y2="302.0" stroke="black"/>
          <line x1="1312.0" y1="302.0" x2="947.0" y2="302.0" stroke="black"/>
          <text x="1129.5" y="287.0" text-anchor="middle" transform="rotate(0.0 1129.5, 287.0)" class="dimension">365cm</text>
        </g>
        <g id="segment_21484760">
          <line x1="947.0" y1="327.0" x2="922.0" y2="327.0" stroke="black"/>
          <line x1="947.0" y1="412.0" x2="922.0" y2="412.0" stroke="black"/>
          <line x1="922.0" y1="327.0" x2="922.0" y2="412.0" stroke="black"/>
          <text x="907.0" y="369.5" text-anchor="middle" transform="rotate(90.0 907.0, 369.5)" class="dimension">85cm</text>
        </g>
        <g id="segment_24964180">
          <line x1="947.0" y1="412.0" x2="947.0" y2="387.0" stroke="black"/>
          <line x1="807.0" y1="412.0" x2="807.0" y2="387.0" stroke="black"/>
          <line x1="947.0" y1="387.0" x2="807.0" y2="387.0" stroke="black"/>
          <text x="877.0" y="372.0" text-anchor="middle" transform="rotate(0.0 877.0, 372.0)" class="dimension">140cm</text>
        </g>
        <g id="segment_23574360">
          <line x1="807.0" y1="412.0" x2="782.0" y2="412.0" stroke="black"/>
          <line x1="807.0" y1="482.0" x2="782.0" y2="482.0" stroke="black"/>
          <line x1="782.0" y1="412.0" x2="782.0" y2="482.0" stroke="black"/>
          <text x="767.0" y="447.0" text-anchor="middle" transform="rotate(90.0 767.0, 447.0)" class="dimension">70cm</text>
        </g>
        <g id="segment_21116700">
          <line x1="807.0" y1="482.0" x2="807.0" y2="457.0" stroke="black"/>
          <line x1="627.0" y1="482.0" x2="627.0" y2="457.0" stroke="black"/>
          <line x1="807.0" y1="457.0" x2="627.0" y2="457.0" stroke="black"/>
          <text x="717.0" y="442.0" text-anchor="middle" transform="rotate(0.0 717.0, 442.0)" class="dimension">180cm</text>
        </g>
        <g id="segment_21466240">
          <line x1="627.0" y1="482.0" x2="602.0" y2="482.0" stroke="black"/>
          <line x1="627.0" y1="867.0" x2="602.0" y2="867.0" stroke="black"/>
          <line x1="602.0" y1="482.0" x2="602.0" y2="867.0" stroke="black"/>
          <text x="587.0" y="674.5" text-anchor="middle" transform="rotate(90.0 587.0, 674.5)" class="dimension">385cm</text>
        </g>
        <g id="segment_24917760">
          <line x1="627.0" y1="867.0" x2="627.0" y2="899.0" stroke="black"/>
          <line x1="1312.0" y1="867.0" x2="1312.0" y2="899.0" stroke="black"/>
          <line x1="627.0" y1="899.0" x2="1312.0" y2="899.0" stroke="black"/>
          <text x="969.5" y="914.0" text-anchor="middle" transform="rotate(0.0 969.5, 914.0)" class="dimension">685cm</text>
        </g>
      </g>
      <polygon points="622.0,482.0 362.0,482.0 362.0,867.0 622.0,867.0" class="room-stroke"/>
      <g id="room_chambre_5" class="show_hover">
        <polygon points="622.0,482.0 362.0,482.0 362.0,867.0 622.0,867.0" class="room-floor"/>
        <text x="492.0" y="674.5" class="room-name" text-anchor="middle">Chambre 5</text>
        <text x="492.0" y="694.5" text-anchor="middle">10.01 m²</text>
        <g id="segment_24576040">
          <line x1="622.0" y1="482.0" x2="622.0" y2="457.0" stroke="black"/>
          <line x1="362.0" y1="482.0" x2="362.0" y2="457.0" stroke="black"/>
          <line x1="622.0" y1="457.0" x2="362.0" y2="457.0" stroke="black"/>
          <text x="492.0" y="442.0" text-anchor="middle" transform="rotate(0.0 492.0, 442.0)" class="dimension">260cm</text>
        </g>
        <g id="segment_23201040">
          <line x1="362.0" y1="482.0" x2="337.0" y2="482.0" stroke="black"/>
          <line x1="362.0" y1="867.0" x2="337.0" y2="867.0" stroke="black"/>
          <line x1="337.0" y1="482.0" x2="337.0" y2="867.0" stroke="black"/>
          <text x="322.0" y="674.5" text-anchor="middle" transform="rotate(90.0 322.0, 674.5)" class="dimension">385cm</text>
        </g>
        <g id="segment_24848900">
          <line x1="362.0" y1="867.0" x2="362.0" y2="899.0" stroke="black"/>
          <line x1="622.0" y1="867.0" x2="622.0" y2="899.0" stroke="black"/>
          <line x1="362.0" y1="899.0" x2="622.0" y2="899.0" stroke="black"/>
          <text x="492.0" y="914.0" text-anchor="middle" transform="rotate(0.0 492.0, 914.0)" class="dimension">260cm</text>
        </g>
        <g id="segment_21448660">
          <line x1="622.0" y1="867.0" x2="647.0" y2="867.0" stroke="black"/>
          <line x1="622.0" y1="482.0" x2="647.0" y2="482.0" stroke="black"/>
          <line x1="647.0" y1="867.0" x2="647.0" y2="482.0" stroke="black"/>
          <text x="662.0" y="674.5" text-anchor="middle" transform="rotate(90.0 662.0, 674.5)" class="dimension">385cm</text>
        </g>
      </g>
      <polygon points="357.0,867.0 62.0,867.0 62.0,487.0 177.0,487.0 177.0,427.0 357.0,427.0" class="room-stroke"/>
      <g id="room_chambre_2" class="show_hover">
        <polygon points="357.0,867.0 62.0,867.0 62.0,487.0 177.0,487.0 177.0,427.0 357.0,427.0" class="room-floor"/>
        <text x="209.5" y="647.0" class="room-name" text-anchor="middle">Chambre 2</text>
        <text x="209.5" y="667.0" text-anchor="middle">12.29 m²</text>
        <g id="segment_24173040">
          <line x1="357.0" y1="867.0" x2="357.0" y2="899.0" stroke="black"/>
          <line x1="62.0" y1="867.0" x2="62.0" y2="899.0" stroke="black"/>
          <line x1="357.0" y1="899.0" x2="62.0" y2="899.0" stroke="black"/>
          <text x="209.5" y="914.0" text-anchor="middle" transform="rotate(0.0 209.5, 914.0)" class="dimension">295cm</text>
        </g>
        <g id="segment_24172480">
          <line x1="62.0" y1="867.0" x2="30.0" y2="867.0" stroke="black"/>
          <line x1="62.0" y1="487.0" x2="30.0" y2="487.0" stroke="black"/>
          <line x1="30.0" y1="867.0" x2="30.0" y2="487.0" stroke="black"/>
          <text x="15.0" y="677.0" text-anchor="middle" transform="rotate(90.0 15.0, 677.0)" class="dimension">380cm</text>
        </g>
        <g id="segment_24852540">
          <line x1="62.0" y1="487.0" x2="62.0" y2="462.0" stroke="black"/>
          <line x1="177.0" y1="487.0" x2="177.0" y2="462.0" stroke="black"/>
          <line x1="62.0" y1="462.0" x2="177.0" y2="462.0" stroke="black"/>
          <text x="119.5" y="447.0" text-anchor="middle" transform="rotate(0.0 119.5, 447.0)" class="dimension">115cm</text>
        </g>
        <g id="segment_24676020">
          <line x1="177.0" y1="487.0" x2="152.0" y2="487.0" stroke="black"/>
          <line x1="177.0" y1="427.0" x2="152.0" y2="427.0" stroke="black"/>
          <line x1="152.0" y1="487.0" x2="152.0" y2="427.0" stroke="black"/>
          <text x="137.0" y="457.0" text-anchor="middle" transform="rotate(90.0 137.0, 457.0)" class="dimension">60cm</text>
        </g>
        <g id="segment_23414600">
          <line x1="177.0" y1="427.0" x2="177.0" y2="402.0" stroke="black"/>
          <line x1="357.0" y1="427.0" x2="357.0" y2="402.0" stroke="black"/>
          <line x1="177.0" y1="402.0" x2="357.0" y2="402.0" stroke="black"/>
          <text x="267.0" y="387.0" text-anchor="middle" transform="rotate(0.0 267.0, 387.0)" class="dimension">180cm</text>
        </g>
        <g id="segment_23049460">
          <line x1="357.0" y1="427.0" x2="382.0" y2="427.0" stroke="black"/>
          <line x1="357.0" y1="867.0" x2="382.0" y2="867.0" stroke="black"/>
          <line x1="382.0" y1="427.0" x2="382.0" y2="867.0" stroke="black"/>
          <text x="397.0" y="647.0" text-anchor="middle" transform="rotate(90.0 397.0, 647.0)" class="dimension">440cm</text>
        </g>
      </g>
      <polygon points="177.0,422.0 357.0,422.0 357.0,62.0 62.0,62.0 62.0,482.0 172.0,482.0 172.0,422.0" class="room-stroke"/>
      <g id="room_chambre_1" class="show_hover">
        <polygon points="177.0,422.0 357.0,422.0 357.0,62.0 62.0,62.0 62.0,482.0 172.0,482.0 172.0,422.0" class="room-floor"/>
        <text x="209.5" y="272.0" class="room-name" text-anchor="middle">Chambre 1</text>
        <text x="209.5" y="292.0" text-anchor="middle">11.28 m²</text>
        <g id="segment_23368300">
          <line x1="177.0" y1="422.0" x2="177.0" y2="447.0" stroke="black"/>
          <line x1="357.0" y1="422.0" x2="357.0" y2="447.0" stroke="black"/>
          <line x1="177.0" y1="447.0" x2="357.0" y2="447.0" stroke="black"/>
          <text x="267.0" y="462.0" text-anchor="middle" transform="rotate(0.0 267.0, 462.0)" class="dimension">180cm</text>
        </g>
        <g id="segment_22968000">
          <line x1="357.0" y1="422.0" x2="382.0" y2="422.0" stroke="black"/>
          <line x1="357.0" y1="62.0" x2="382.0" y2="62.0" stroke="black"/>
          <line x1="382.0" y1="422.0" x2="382.0" y2="62.0" stroke="black"/>
          <text x="397.0" y="242.0" text-anchor="middle" transform="rotate(90.0 397.0, 242.0)" class="dimension">360cm</text>
        </g>
        <g id="segment_24427160">
          <line x1="357.0" y1="62.0" x2="357.0" y2="30.0" stroke="black"/>
          <line x1="62.0" y1="62.0" x2="62.0" y2="30.0" stroke="black"/>
          <line x1="357.0" y1="30.0" x2="62.0" y2="30.0" stroke="black"/>
          <text x="209.5" y="15.0" text-anchor="middle" transform="rotate(0.0 209.5, 15.0)" class="dimension">295cm</text>
        </g>
        <g id="segment_24426260">
          <line x1="62.0" y1="62.0" x2="30.0" y2="62.0" stroke="black"/>
          <line x1="62.0" y1="482.0" x2="30.0" y2="482.0" stroke="black"/>
          <line x1="30.0" y1="62.0" x2="30.0" y2="482.0" stroke="black"/>
          <text x="15.0" y="272.0" text-anchor="middle" transform="rotate(90.0 15.0, 272.0)" class="dimension">420cm</text>
        </g>
        <g id="segment_24846640">
          <line x1="62.0" y1="482.0" x2="62.0" y2="507.0" stroke="black"/>
          <line x1="172.0" y1="482.0" x2="172.0" y2="507.0" stroke="black"/>
          <line x1="62.0" y1="507.0" x2="172.0" y2="507.0" stroke="black"/>
          <text x="117.0" y="522.0" text-anchor="middle" transform="rotate(0.0 117.0, 522.0)" class="dimension">110cm</text>
        </g>
        <g id="segment_24576300">
          <line x1="172.0" y1="482.0" x2="197.0" y2="482.0" stroke="black"/>
          <line x1="172.0" y1="422.0" x2="197.0" y2="422.0" stroke="black"/>
          <line x1="197.0" y1="482.0" x2="197.0" y2="422.0" stroke="black"/>
          <text x="212.0" y="452.0" text-anchor="middle" transform="rotate(90.0 212.0, 452.0)" class="dimension">60cm</text>
        </g>
      </g>
      <polygon points="362.0,62.0 712.0,62.0 712.0,322.0 362.0,322.0" class="room-stroke"/>
      <g id="room_chambre_4" class="show_hover">
        <polygon points="362.0,62.0 712.0,62.0 712.0,322.0 362.0,322.0" class="room-floor"/>
        <text x="537.0" y="192.0" class="room-name" text-anchor="middle">Chambre 4</text>
        <text x="537.0" y="212.0" text-anchor="middle">9.1 m²</text>
        <g id="segment_23363840">
          <line x1="362.0" y1="62.0" x2="362.0" y2="30.0" stroke="black"/>
          <line x1="712.0" y1="62.0" x2="712.0" y2="30.0" stroke="black"/>
          <line x1="362.0" y1="30.0" x2="712.0" y2="30.0" stroke="black"/>
          <text x="537.0" y="15.0" text-anchor="middle" transform="rotate(0.0 537.0, 15.0)" class="dimension">350cm</text>
        </g>
        <g id="segment_24899520">
          <line x1="712.0" y1="62.0" x2="737.0" y2="62.0" stroke="black"/>
          <line x1="712.0" y1="322.0" x2="737.0" y2="322.0" stroke="black"/>
          <line x1="737.0" y1="62.0" x2="737.0" y2="322.0" stroke="black"/>
          <text x="752.0" y="192.0" text-anchor="middle" transform="rotate(90.0 752.0, 192.0)" class="dimension">260cm</text>
        </g>
        <g id="segment_24854340">
          <line x1="712.0" y1="322.0" x2="712.0" y2="347.0" stroke="black"/>
          <line x1="362.0" y1="322.0" x2="362.0" y2="347.0" stroke="black"/>
          <line x1="712.0" y1="347.0" x2="362.0" y2="347.0" stroke="black"/>
          <text x="537.0" y="362.0" text-anchor="middle" transform="rotate(0.0 537.0, 362.0)" class="dimension">350cm</text>
        </g>
        <g id="segment_22937540">
          <line x1="362.0" y1="322.0" x2="337.0" y2="322.0" stroke="black"/>
          <line x1="362.0" y1="62.0" x2="337.0" y2="62.0" stroke="black"/>
          <line x1="337.0" y1="322.0" x2="337.0" y2="62.0" stroke="black"/>
          <text x="322.0" y="192.0" text-anchor="middle" transform="rotate(90.0 322.0, 192.0)" class="dimension">260cm</text>
        </g>
      </g>
      <polygon points="712.0,327.0 457.0,327.0 457.0,407.0 712.0,407.0" class="room-stroke"/>
      <g id="room_escalier" class="show_hover">
        <polygon points="712.0,327.0 457.0,327.0 457.0,407.0 712.0,407.0" class="room-floor"/>
        <text x="584.5" y="367.0" class="room-name" text-anchor="middle">Escalier</text>
        <text x="584.5" y="387.0" text-anchor="middle">2.04 m²</text>
        <g id="segment_24848280">
          <line x1="712.0" y1="327.0" x2="712.0" y2="302.0" stroke="black"/>
          <line x1="457.0" y1="327.0" x2="457.0" y2="302.0" stroke="black"/>
          <line x1="712.0" y1="302.0" x2="457.0" y2="302.0" stroke="black"/>
          <text x="584.5" y="287.0" text-anchor="middle" transform="rotate(0.0 584.5, 287.0)" class="dimension">255cm</text>
        </g>
        <g id="segment_23449360">
          <line x1="457.0" y1="327.0" x2="432.0" y2="327.0" stroke="black"/>
          <line x1="457.0" y1="407.0" x2="432.0" y2="407.0" stroke="black"/>
          <line x1="432.0" y1="327.0" x2="432.0" y2="407.0" stroke="black"/>
          <text x="417.0" y="367.0" text-anchor="middle" transform="rotate(90.0 417.0, 367.0)" class="dimension">80cm</text>
        </g>
        <g id="segment_22929640">
          <line x1="457.0" y1="407.0" x2="457.0" y2="432.0" stroke="black"/>
          <line x1="712.0" y1="407.0" x2="712.0" y2="432.0" stroke="black"/>
          <line x1="457.0" y1="432.0" x2="712.0" y2="432.0" stroke="black"/>
          <text x="584.5" y="447.0" text-anchor="middle" transform="rotate(0.0 584.5, 447.0)" class="dimension">255cm</text>
        </g>
        <g id="segment_21479800">
          <line x1="712.0" y1="407.0" x2="737.0" y2="407.0" stroke="black"/>
          <line x1="712.0" y1="327.0" x2="737.0" y2="327.0" stroke="black"/>
          <line x1="737.0" y1="407.0" x2="737.0" y2="327.0" stroke="black"/>
          <text x="752.0" y="367.0" text-anchor="middle" transform="rotate(90.0 752.0, 367.0)" class="dimension">80cm</text>
        </g>
      </g>
      <polygon points="717.0,62.0 942.0,62.0 942.0,322.0 717.0,322.0" class="room-stroke"/>
      <g id="room_salle_de_bains" class="show_hover">
        <polygon points="717.0,62.0 942.0,62.0 942.0,322.0 717.0,322.0" class="room-floor"/>
        <text x="829.5" y="192.0" class="room-name" text-anchor="middle">Salle de bains</text>
        <text x="829.5" y="212.0" text-anchor="middle">5.85 m²</text>
        <g id="segment_22951240">
          <line x1="717.0" y1="62.0" x2="717.0" y2="30.0" stroke="black"/>
          <line x1="942.0" y1="62.0" x2="942.0" y2="30.0" stroke="black"/>
          <line x1="717.0" y1="30.0" x2="942.0" y2="30.0" stroke="black"/>
          <text x="829.5" y="15.0" text-anchor="middle" transform="rotate(0.0 829.5, 15.0)" class="dimension">225cm</text>
        </g>
        <g id="segment_3205140">
          <line x1="942.0" y1="62.0" x2="967.0" y2="62.0" stroke="black"/>
          <line x1="942.0" y1="322.0" x2="967.0" y2="322.0" stroke="black"/>
          <line x1="967.0" y1="62.0" x2="967.0" y2="322.0" stroke="black"/>
          <text x="982.0" y="192.0" text-anchor="middle" transform="rotate(90.0 982.0, 192.0)" class="dimension">260cm</text>
        </g>
        <g id="segment_24979180">
          <line x1="942.0" y1="322.0" x2="942.0" y2="347.0" stroke="black"/>
          <line x1="717.0" y1="322.0" x2="717.0" y2="347.0" stroke="black"/>
          <line x1="942.0" y1="347.0" x2="717.0" y2="347.0" stroke="black"/>
          <text x="829.5" y="362.0" text-anchor="middle" transform="rotate(0.0 829.5, 362.0)" class="dimension">225cm</text>
        </g>
        <g id="segment_24886520">
          <line x1="717.0" y1="322.0" x2="692.0" y2="322.0" stroke="black"/>
          <line x1="717.0" y1="62.0" x2="692.0" y2="62.0" stroke="black"/>
          <line x1="692.0" y1="322.0" x2="692.0" y2="62.0" stroke="black"/>
          <text x="677.0" y="192.0" text-anchor="middle" transform="rotate(90.0 677.0, 192.0)" class="dimension">260cm</text>
        </g>
      </g>
      <polygon points="942.0,327.0 807.0,327.0 807.0,407.0 942.0,407.0" class="room-stroke"/>
      <g id="room_wc" class="show_hover">
        <polygon points="942.0,327.0 807.0,327.0 807.0,407.0 942.0,407.0" class="room-floor"/>
        <text x="874.5" y="367.0" class="room-name" text-anchor="middle">WC</text>
        <text x="874.5" y="387.0" text-anchor="middle">1.08 m²</text>
        <g id="segment_24963760">
          <line x1="942.0" y1="327.0" x2="942.0" y2="302.0" stroke="black"/>
          <line x1="807.0" y1="327.0" x2="807.0" y2="302.0" stroke="black"/>
          <line x1="942.0" y1="302.0" x2="807.0" y2="302.0" stroke="black"/>
          <text x="874.5" y="287.0" text-anchor="middle" transform="rotate(0.0 874.5, 287.0)" class="dimension">135cm</text>
        </g>
        <g id="segment_24899860">
          <line x1="807.0" y1="327.0" x2="782.0" y2="327.0" stroke="black"/>
          <line x1="807.0" y1="407.0" x2="782.0" y2="407.0" stroke="black"/>
          <line x1="782.0" y1="327.0" x2="782.0" y2="407.0" stroke="black"/>
          <text x="767.0" y="367.0" text-anchor="middle" transform="rotate(90.0 767.0, 367.0)" class="dimension">80cm</text>
        </g>
        <g id="segment_24928680">
          <line x1="807.0" y1="407.0" x2="807.0" y2="432.0" stroke="black"/>
          <line x1="942.0" y1="407.0" x2="942.0" y2="432.0" stroke="black"/>
          <line x1="807.0" y1="432.0" x2="942.0" y2="432.0" stroke="black"/>
          <text x="874.5" y="447.0" text-anchor="middle" transform="rotate(0.0 874.5, 447.0)" class="dimension">135cm</text>
        </g>
        <g id="segment_21468520">
          <line x1="942.0" y1="407.0" x2="967.0" y2="407.0" stroke="black"/>
          <line x1="942.0" y1="327.0" x2="967.0" y2="327.0" stroke="black"/>
          <line x1="967.0" y1="407.0" x2="967.0" y2="327.0" stroke="black"/>
          <text x="982.0" y="367.0" text-anchor="middle" transform="rotate(90.0 982.0, 367.0)" class="dimension">80cm</text>
        </g>
      </g>
      <polygon points="1312.0,322.0 947.0,322.0 947.0,62.0 1312.0,62.0" class="room-stroke"/>
      <g id="room_cuisine" class="show_hover">
        <polygon points="1312.0,322.0 947.0,322.0 947.0,62.0 1312.0,62.0" class="room-floor"/>
        <text x="1129.5" y="192.0" class="room-name" text-anchor="middle">Cuisine</text>
        <text x="1129.5" y="212.0" text-anchor="middle">9.49 m²</text>
        <g id="segment_23013200">
          <line x1="1312.0" y1="322.0" x2="1312.0" y2="347.0" stroke="black"/>
          <line x1="947.0" y1="322.0" x2="947.0" y2="347.0" stroke="black"/>
          <line x1="1312.0" y1="347.0" x2="947.0" y2="347.0" stroke="black"/>
          <text x="1129.5" y="362.0" text-anchor="middle" transform="rotate(0.0 1129.5, 362.0)" class="dimension">365cm</text>
        </g>
        <g id="segment_3189140">
          <line x1="947.0" y1="322.0" x2="922.0" y2="322.0" stroke="black"/>
          <line x1="947.0" y1="62.0" x2="922.0" y2="62.0" stroke="black"/>
          <line x1="922.0" y1="322.0" x2="922.0" y2="62.0" stroke="black"/>
          <text x="907.0" y="192.0" text-anchor="middle" transform="rotate(90.0 907.0, 192.0)" class="dimension">260cm</text>
        </g>
        <g id="segment_21755080">
          <line x1="947.0" y1="62.0" x2="947.0" y2="30.0" stroke="black"/>
          <line x1="1312.0" y1="62.0" x2="1312.0" y2="30.0" stroke="black"/>
          <line x1="947.0" y1="30.0" x2="1312.0" y2="30.0" stroke="black"/>
          <text x="1129.5" y="15.0" text-anchor="middle" transform="rotate(0.0 1129.5, 15.0)" class="dimension">365cm</text>
        </g>
        <g id="segment_21753880">
          <line x1="1312.0" y1="62.0" x2="1344.0" y2="62.0" stroke="black"/>
          <line x1="1312.0" y1="322.0" x2="1344.0" y2="322.0" stroke="black"/>
          <line x1="1344.0" y1="62.0" x2="1344.0" y2="322.0" stroke="black"/>
          <text x="1359.0" y="192.0" text-anchor="middle" transform="rotate(90.0 1359.0, 192.0)" class="dimension">260cm</text>
        </g>
      </g>
      <polygon points="802.0,327.0 802.0,477.0 362.0,477.0 362.0,327.0 452.0,327.0 452.0,412.0 717.0,412.0 717.0,327.0" class="room-stroke"/>
      <g id="room_couloir" class="show_hover">
        <polygon points="802.0,327.0 802.0,477.0 362.0,477.0 362.0,327.0 452.0,327.0 452.0,412.0 717.0,412.0 717.0,327.0" class="room-floor"/>
        <text x="582.0" y="402.0" class="room-name" text-anchor="middle">Couloir</text>
        <text x="582.0" y="422.0" text-anchor="middle">4.35 m²</text>
        <g id="segment_23450240">
          <line x1="802.0" y1="327.0" x2="827.0" y2="327.0" stroke="black"/>
          <line x1="802.0" y1="477.0" x2="827.0" y2="477.0" stroke="black"/>
          <line x1="827.0" y1="327.0" x2="827.0" y2="477.0" stroke="black"/>
          <text x="842.0" y="402.0" text-anchor="middle" transform="rotate(90.0 842.0, 402.0)" class="dimension">150cm</text>
        </g>
        <g id="segment_21606040">
          <line x1="802.0" y1="477.0" x2="802.0" y2="502.0" stroke="black"/>
          <line x1="362.0" y1="477.0" x2="362.0" y2="502.0" stroke="black"/>
          <line x1="802.0" y1="502.0" x2="362.0" y2="502.0" stroke="black"/>
          <text x="582.0" y="517.0" text-anchor="middle" transform="rotate(0.0 582.0, 517.0)" class="dimension">440cm</text>
        </g>
        <g id="segment_21659460">
          <line x1="362.0" y1="477.0" x2="337.0" y2="477.0" stroke="black"/>
          <line x1="362.0" y1="327.0" x2="337.0" y2="327.0" stroke="black"/>
          <line x1="337.0" y1="477.0" x2="337.0" y2="327.0" stroke="black"/>
          <text x="322.0" y="402.0" text-anchor="middle" transform="rotate(90.0 322.0, 402.0)" class="dimension">150cm</text>
        </g>
        <g id="segment_21657080">
          <line x1="362.0" y1="327.0" x2="362.0" y2="302.0" stroke="black"/>
          <line x1="452.0" y1="327.0" x2="452.0" y2="302.0" stroke="black"/>
          <line x1="362.0" y1="302.0" x2="452.0" y2="302.0" stroke="black"/>
          <text x="407.0" y="287.0" text-anchor="middle" transform="rotate(0.0 407.0, 287.0)" class="dimension">90cm</text>
        </g>
        <g id="segment_23383060">
          <line x1="452.0" y1="327.0" x2="477.0" y2="327.0" stroke="black"/>
          <line x1="452.0" y1="412.0" x2="477.0" y2="412.0" stroke="black"/>
          <line x1="477.0" y1="327.0" x2="477.0" y2="412.0" stroke="black"/>
          <text x="492.0" y="369.5" text-anchor="middle" transform="rotate(90.0 492.0, 369.5)" class="dimension">85cm</text>
        </g>
        <g id="segment_21825140">
          <line x1="452.0" y1="412.0" x2="452.0" y2="387.0" stroke="black"/>
          <line x1="717.0" y1="412.0" x2="717.0" y2="387.0" stroke="black"/>
          <line x1="452.0" y1="387.0" x2="717.0" y2="387.0" stroke="black"/>
          <text x="584.5" y="372.0" text-anchor="middle" transform="rotate(0.0 584.5, 372.0)" class="dimension">265cm</text>
        </g>
        <g id="segment_21450500">
          <line x1="717.0" y1="412.0" x2="692.0" y2="412.0" stroke="black"/>
          <line x1="717.0" y1="327.0" x2="692.0" y2="327.0" stroke="black"/>
          <line x1="692.0" y1="412.0" x2="692.0" y2="327.0" stroke="black"/>
          <text x="677.0" y="369.5" text-anchor="middle" transform="rotate(90.0 677.0, 369.5)" class="dimension">85cm</text>
        </g>
        <g id="segment_21654220">
          <line x1="717.0" y1="327.0" x2="717.0" y2="302.0" stroke="black"/>
          <line x1="802.0" y1="327.0" x2="802.0" y2="302.0" stroke="black"/>
          <line x1="717.0" y1="302.0" x2="802.0" y2="302.0" stroke="black"/>
          <text x="759.5" y="287.0" text-anchor="middle" transform="rotate(0.0 759.5, 287.0)" class="dimension">85cm</text>
        </g>
      </g>
      <g id="wall_sejour_0">
        <polygon points="1312.0,867.0 1312.0,327.0 1324.0,327.0 1324.0,867.0" class="wall"/>
      </g>
      <g id="wall_sejour_7">
        <polygon points="627.0,867.0 1312.0,867.0 1312.0,879.0 627.0,879.0" class="wall"/>
      </g>
      <g id="wall_chambre_5_2">
        <polygon points="362.0,867.0 622.0,867.0 622.0,879.0 362.0,879.0" class="wall"/>
      </g>
      <g id="wall_chambre_2_0">
        <polygon points="357.0,867.0 62.0,867.0 62.0,879.0 357.0,879.0" class="wall"/>
      </g>
      <g id="wall_chambre_2_1">
        <polygon points="62.0,867.0 62.0,487.0 50.0,487.0 50.0,867.0" class="wall"/>
      </g>
      <g id="wall_chambre_1_2">
        <polygon points="357.0,62.0 62.0,62.0 62.0,50.0 357.0,50.0" class="wall"/>
      </g>
      <g id="wall_chambre_1_3">
        <polygon points="62.0,62.0 62.0,482.0 50.0,482.0 50.0,62.0" class="wall"/>
      </g>
      <g id="wall_chambre_4_0">
        <polygon points="362.0,62.0 712.0,62.0 712.0,50.0 362.0,50.0" class="wall"/>
      </g>
      <g id="wall_salle_de_bains_0">
        <polygon points="717.0,62.0 942.0,62.0 942.0,50.0 717.0,50.0" class="wall"/>
      </g>
      <g id="wall_cuisine_2">
        <polygon points="947.0,62.0 1312.0,62.0 1312.0,50.0 947.0,50.0" class="wall"/>
      </g>
      <g id="wall_cuisine_3">
        <polygon points="1312.0,62.0 1312.0,322.0 1324.0,322.0 1324.0,62.0" class="wall"/>
      </g>
      <g id="wall_couloir_2">
        <polygon points="362.0,477.0 362.0,327.0 357.0,327.0 357.0,477.0" class="wall"/>
      </g>
      <g id="wall_couloir_3">
        <polygon points="362.0,327.0 452.0,327.0 452.0,322.0 362.0,322.0" class="wall"/>
      </g>
      <g id="wall_couloir_7">
        <polygon points="717.0,327.0 802.0,327.0 802.0,322.0 717.0,322.0" class="wall"/>
      </g>
      <g id="wall_sejour_cuisine_cuisine_0">
        <polygon points="1312.0,327.0 947.0,327.0 947.0,322.0 1312.0,322.0" class="wall"/>
      </g>
      <g id="wall_sejour_2_wc_3">
        <polygon points="947.0,327.0 947.0,407.0 947.0,412.0 942.0,412.0 942.0,407.0 942.0,327.0" class="wall"/>
      </g>
      <g id="wall_sejour_3_wc_2">
        <polygon points="947.0,412.0 942.0,412.0 807.0,412.0 807.0,407.0 942.0,407.0 947.0,407.0" class="wall"/>
      </g>
      <g id="wall_sejour_4_couloir_0">
        <polygon points="807.0,327.0 807.0,412.0 807.0,477.0 807.0,482.0 802.0,482.0 802.0,477.0 802.0,412.0 802.0,327.0" class="wall"/>
      </g>
      <g id="wall_sejour_5_couloir_1">
        <polygon points="807.0,482.0 802.0,482.0 627.0,482.0 362.0,482.0 362.0,477.0 627.0,477.0 802.0,477.0 807.0,477.0" class="wall"/>
      </g>
      <g id="wall_sejour_chambre_5_chambre_5_3">
        <polygon points="627.0,482.0 627.0,867.0 622.0,867.0 622.0,482.0" class="wall"/>
      </g>
      <g id="wall_chambre_5_0_couloir_1">
        <polygon points="802.0,482.0 622.0,482.0 362.0,482.0 362.0,477.0 622.0,477.0 802.0,477.0" class="wall"/>
      </g>
      <g id="wall_chambre_5_chambre_2_chambre_2_5">
        <polygon points="362.0,427.0 362.0,482.0 362.0,867.0 357.0,867.0 357.0,482.0 357.0,427.0" class="wall"/>
      </g>
      <g id="wall_chambre_2_2_chambre_1_4">
        <polygon points="62.0,482.0 172.0,482.0 177.0,482.0 177.0,487.0 172.0,487.0 62.0,487.0" class="wall"/>
      </g>
      <g id="wall_chambre_2_3_chambre_1_5">
        <polygon points="172.0,487.0 172.0,482.0 172.0,427.0 172.0,422.0 177.0,422.0 177.0,427.0 177.0,482.0 177.0,487.0" class="wall"/>
      </g>
      <g id="wall_chambre_2_chambre_1_chambre_1_0">
        <polygon points="177.0,422.0 357.0,422.0 357.0,427.0 177.0,427.0" class="wall"/>
      </g>
      <g id="wall_chambre_1_chambre_4_chambre_4_3">
        <polygon points="357.0,422.0 357.0,322.0 357.0,62.0 362.0,62.0 362.0,322.0 362.0,422.0" class="wall"/>
      </g>
      <g id="wall_chambre_4_salle_de_bains_salle_de_bains_3">
        <polygon points="717.0,62.0 717.0,322.0 712.0,322.0 712.0,62.0" class="wall"/>
      </g>
      <g id="wall_chambre_4_escalier_escalier_0">
        <polygon points="712.0,327.0 457.0,327.0 362.0,327.0 362.0,322.0 457.0,322.0 712.0,322.0" class="wall"/>
      </g>
      <g id="wall_escalier_1_couloir_4">
        <polygon points="457.0,327.0 457.0,407.0 457.0,412.0 452.0,412.0 452.0,407.0 452.0,327.0" class="wall"/>
      </g>
      <g id="wall_escalier_2_couloir_5">
        <polygon points="452.0,407.0 457.0,407.0 712.0,407.0 717.0,407.0 717.0,412.0 712.0,412.0 457.0,412.0 452.0,412.0" class="wall"/>
      </g>
      <g id="wall_escalier_3_couloir_6">
        <polygon points="712.0,412.0 712.0,407.0 712.0,327.0 717.0,327.0 717.0,407.0 717.0,412.0" class="wall"/>
      </g>
      <g id="wall_salle_de_bains_1_cuisine_1">
        <polygon points="947.0,62.0 947.0,322.0 942.0,322.0 942.0,62.0" class="wall"/>
      </g>
      <g id="wall_salle_de_bains_wc_wc_0">
        <polygon points="942.0,327.0 807.0,327.0 717.0,327.0 717.0,322.0 807.0,322.0 942.0,322.0" class="wall"/>
      </g>
      <g id="wall_wc_couloir_couloir_0">
        <polygon points="807.0,327.0 807.0,407.0 807.0,477.0 802.0,477.0 802.0,407.0 802.0,327.0" class="wall"/>
      </g>
      <g id="wall_corner_sejour_0_sejour_7">
        <polygon points="1312.0,867.0 1312.0,879.0 1324.0,879.0 1324.0,867.0" class="wall"/>
      </g>
      <g id="wall_corner_sejour_0_sejour_cuisine_cuisine_0">
        <polygon points="1312.0,327.0 1312.0,322.0 1324.0,322.0 1324.0,327.0" class="wall"/>
      </g>
      <g id="wall_corner_sejour_7_sejour_chambre_5_chambre_5_3">
        <polygon points="627.0,867.0 622.0,867.0 622.0,879.0 627.0,879.0" class="wall"/>
      </g>
      <g id="wall_corner_chambre_5_2_chambre_5_chambre_2_chambre_2_5">
        <polygon points="362.0,867.0 357.0,867.0 357.0,879.0 362.0,879.0" class="wall"/>
      </g>
      <g id="wall_corner_chambre_2_0_chambre_2_1">
        <polygon points="62.0,867.0 50.0,867.0 50.0,879.0 62.0,879.0" class="wall"/>
      </g>
      <g id="wall_corner_chambre_2_1_chambre_2_2_chambre_1_4">
        <polygon points="62.0,487.0 62.0,482.0 50.0,482.0 50.0,487.0" class="wall"/>
      </g>
      <g id="wall_corner_chambre_1_2_chambre_1_3">
        <polygon points="62.0,62.0 50.0,62.0 50.0,50.0 62.0,50.0" class="wall"/>
      </g>
      <g id="wall_corner_chambre_1_2_chambre_1_chambre_4_chambre_4_3">
        <polygon points="357.0,62.0 362.0,62.0 362.0,50.0 357.0,50.0" class="wall"/>
      </g>
      <g id="wall_corner_chambre_4_0_chambre_4_salle_de_bains_salle_de_bains_3">
        <polygon points="712.0,62.0 717.0,62.0 717.0,50.0 712.0,50.0" class="wall"/>
      </g>
      <g id="wall_corner_salle_de_bains_0_salle_de_bains_1_cuisine_1">
        <polygon points="942.0,62.0 947.0,62.0 947.0,50.0 942.0,50.0" class="wall"/>
      </g>
      <g id="wall_corner_cuisine_2_cuisine_3">
        <polygon points="1312.0,62.0 1324.0,62.0 1324.0,50.0 1312.0,50.0" class="wall"/>
      </g>
      <g id="wall_corner_couloir_7_chambre_4_salle_de_bains_salle_de_bains_3">
        <polygon points="717.0,322.0 712.0,322.0 712.0,327.0 717.0,327.0" class="wall"/>
      </g>
      <g id="wall_corner_sejour_cuisine_cuisine_0_sejour_2_wc_3">
        <polygon points="947.0,327.0 942.0,327.0 942.0,322.0 947.0,322.0" class="wall"/>
      </g>
    </g>
    <text x="662.0" y="929.0" text-anchor="middle">Total: 98.5 m²</text>
  </g>
</svg>
