<?xml version="1.0" encoding="UTF-8"?>
<!DOCTYPE svg PUBLIC "-//W3C//DTD SVG 1.1//EN" "http://www.w3.org/Graphics/SVG/1.1/DTD/svg11.dtd">
<svg xmlns="http://www.w3.org/2000/svg" width="297mm" height="210mm">
  <title>Opening (0.1.0)</title>
  <metadata xmlns:dc="http://purl.org/dc/elements/1.1/">
    <dc:title>Opening</dc:title>
    <dc:identifier>0.1.0</dc:identifier>
    <dc:creator>Rataah</dc:creator>
  </metadata>
  <style type="text/css">svg {
    font-family: "Helvetica Neue", Helvetica, Arial, sans-serif;
}

/** INTERACTIONS **/
.component-panel {
    fill: url(#steel_gradient);
    stroke: #dcdcdc;
    stroke-width: 1px;
}
.component-title {
    font-family: Arial, sans-serif;
    font-weight:bold;
}
.button {
    fill: url(#steel_gradient);
    stroke: #dcdcdc;
    stroke-width: 1px;
    pointer-events: all;
    cursor: pointer;
}
.button:hover {
    fill: url(#steel_gradient_hover);
}
.button-content {
    fill: #666666;
    pointer-events: none;
    font-family: Arial, sans-serif;
    font-weight:bold;
}

.show_hover {
    opacity: 0.0;
}

.show_hover:hover {
    opacity: 1.0;
}

.room-stroke {
    fill: rgba(255, 255, 255, 0);
    stroke: #4f4f4f;
    stroke-width: 5px;
}

.room-floor {
    fill:  url(#steel_gradient); /*rgba(245, 245, 220, 0.72);*/
    opacity: 0.8;
    stroke-width: 3px;
}

.room-name {
    font-weight: bold;
    text-decoration: underline;
}

.dimension {
    font-weight: lighter;
}

.wall {
    fill: url(#stripes);
    stroke: black;
    stroke-width: 1px;
}

.window {
    fill: white;
    stroke: black;
}

.window path {
    opacity: 0.3;
}

.window:hover path {
    opacity: 1.0
}

.door {
    fill: white;
    stroke: black;
}

.door path {
    opacity: 0.3;
}

.door:hover path {
    opacity: 1.0
}

use.symbol {
    stroke: red;
}
</style>
  <script type="text/ecmascript">function floors_interaction(floor_id)
{
    var floors = document.getElementsByClassName('floor');
    console.log(floors);
    [].forEach.call(floors, function(floor) {
       if(floor.id == floor_id) {
           floor.style.display = 'inherit';
       }
        else {
           floor.style.display = 'none';
       }
    });
}
</script>
  <defs><pattern id="stripes" x="0" y="0" width="6" height="6" patternUnits="userSpaceOnUse">
    <g stroke="none" stroke-width="1" fill="none" fill-rule="evenodd">
        <g fill="#111">
            <polygon points="0 6 6 0 3 0 0 3"/>
            <polygon points="6 6 6 3 3 6"/>
        </g>
    </g>
</pattern><linearGradient id="steel_gradient" x1="50%" y1="100%" x2="50%" y2="0%">
  <stop offset="0%" style="stop-color:rgb(255,255,255);stop-opacity:1"/>
  <stop offset="5%" style="stop-color:rgb(255,255,255);stop-opacity:1"/>
  <stop offset="100%" style="stop-color:rgb(246,246,246);stop-opacity:1"/>
</linearGradient>
<linearGradient id="steel_gradient_hover" x1="50%" y1="100%" x2="50%" y2="0%">
  <stop offset="0%" style="stop-color:rgb(246,246,246);stop-opacity:1"/>
  <stop offset="5%" style="stop-color:rgb(246,246,246);stop-opacity:1"/>
  <stop offset="100%" style="stop-color:rgb(255,255,255);stop-opacity:1"/>
</linearGradient>
<g id="room-object-ceiling_light">
  <ellipse ry="7" rx="7" cy="0" cx="0" fill="#fff"/>
  <line y2="5" x2="5" y1="-5" x1="-5"/>
  <line y2="-5" x2="5" y1="5" x1="-5"/>
</g>
<g id="wall-object-power-outlet">
  <line x1="-6" y1="0" x2="0" y2="0"/>
  <line x1="0" y1="-3" x2="0" y2="3"/>
  <path d="M 5,-5 L 5,-3 A 4,3 0 0 0 5,3 L 5,5" fill="none"/>
</g>
<g id="wall-object-switch-simple">
  <ellipse ry="5" rx="5" cy="2" cx="-2" fill="#fff"/>
  <line y2="-7" x2="7" y1="-1" x1="1"/>
</g>
</defs>
  <g id="root_component"/>
  <g id="root_content">
    <g id="root_panel" transform="translate(55.0,55.0)">
      <g id="floor_floor" class="floor">
        <polygon points="0.0,0.0 1200.0,0.0 1200.0,200.0 0.0,200.0" class="room-stroke"/>
        <g id="room_room1" class="show_hover">
          <polygon points="0.0,0.0 1200.0,0.0 1200.0,200.0 0.0,200.0" class="room-floor"/>
          <text x="600.0" y="100.0" class="room-name" text-anchor="middle">room1</text>
          <text x="600.0" y="120.0" text-anchor="middle">24.0 m²</text>
          <g id="segment_3840780">
            <line x1="0.0" y1="0.0" x2="0.0" y2="25.0" stroke="black"/>
            <line x1="1200.0" y1="0.0" x2="1200.0" y2="25.0" stroke="black"/>
            <line x1="0.0" y1="25.0" x2="1200.0" y2="25.0" stroke="black"/>
            <text x="600.0" y="40.0" text-anchor="middle" transform="rotate(0.0 600.0, 40.0)" class="dimension">1200cm</text>
          </g>
          <g id="segment_3840220">
            <line x1="1200.0" y1="0.0" x2="1175.0" y2="0.0" stroke="black"/>
            <line x1="1200.0" y1="200.0" x2="1175.0" y2="200.0" stroke="black"/>
            <line x1="1175.0" y1="0.0" x2="1175.0" y2="200.0" stroke="black"/>
            <text x="1160.0" y="100.0" text-anchor="middle" transform="rotate(90.0 1160.0, 100.0)" class="dimension">200cm</text>
          </g>
          <g id="segment_26954940">
            <line x1="1200.0" y1="200.0" x2="1200.0" y2="175.0" stroke="black"/>
            <line x1="0.0" y1="200.0" x2="0.0" y2="175.0" stroke="black"/>
            <line x1="1200.0" y1="175.0" x2="0.0" y2="175.0" stroke="black"/>
            <text x="600.0" y="160.0" text-anchor="middle" transform="rotate(0.0 600.0, 160.0)" class="dimension">1200cm</text>
          </g>
          <g id="segment_3837720">
            <line x1="0.0" y1="200.0" x2="25.0" y2="200.0" stroke="black"/>
            <line x1="0.0" y1="0.0" x2="25.0" y2="0.0" stroke="black"/>
            <line x1="25.0" y1="200.0" x2="25.0" y2="0.0" stroke="black"/>
            <text x="40.0" y="100.0" text-anchor="middle" transform="rotate(90.0 40.0, 100.0)" class="dimension">200cm</text>
          </g>
        </g>
        <polygon points="1200.0,205.0 0.0,205.0 0.0,405.0 1200.0,405.0" class="room-stroke"/>
        <g id="room_room2" class="show_hover">
          <polygon points="1200.0,205.0 0.0,205.0 0.0,405.0 1200.0,405.0" class="room-floor"/>
          <text x="600.0" y="305.0" class="room-name" text-anchor="middle">room2</text>
          <text x="600.0" y="325.0" text-anchor="middle">24.0 m²</text>
          <g id="segment_26933600">
            <line x1="1200.0" y1="205.0" x2="1200.0" y2="230.0" stroke="black"/>
            <line x1="0.0" y1="205.0" x2="0.0" y2="230.0" stroke="black"/>
            <line x1="1200.0" y1="230.0" x2="0.0" y2="230.0" stroke="black"/>
            <text x="600.0" y="245.0" text-anchor="middle" transform="rotate(0.0 600.0, 245.0)" class="dimension">1200cm</text>
          </g>
          <g id="segment_3886700">
            <line x1="0.0" y1="205.0" x2="25.0" y2="205.0" stroke="black"/>
            <line x1="0.0" y1="405.0" x2="25.0" y2="405.0" stroke="black"/>
            <line x1="25.0" y1="205.0" x2="25.0" y2="405.0" stroke="black"/>
            <text x="40.0" y="305.0" text-anchor="middle" transform="rotate(90.0 40.0, 305.0)" class="dimension">200cm</text>
          </g>
          <g id="segment_3886240">
            <line x1="0.0" y1="405.0" x2="0.0" y2="380.0" stroke="black"/>
            <line x1="1200.0" y1="405.0" x2="1200.0" y2="380.0" stroke="black"/>
            <line x1="0.0" y1="380.0" x2="1200.0" y2="380.0" stroke="black"/>
            <text x="600.0" y="365.0" text-anchor="middle" transform="rotate(0.0 600.0, 365.0)" class="dimension">1200cm</text>
          </g>
          <g id="segment_3885820">
            <line x1="1200.0" y1="405.0" x2="1175.0" y2="405.0" stroke="black"/>
            <line x1="1200.0" y1="205.0" x2="1175.0" y2="205.0" stroke="black"/>
            <line x1="1175.0" y1="405.0" x2="1175.0" y2="205.0" stroke="black"/>
            <text x="1160.0" y="305.0" text-anchor="middle" transform="rotate(90.0 1160.0, 305.0)" class="dimension">200cm</text>
          </g>
        </g>
        <g id="wall_room1_0">
          <polygon points="0.0,0.0 1200.0,0.0 1200.0,-5.0 0.0,-5.0" class="wall"/>
        </g>
        <g id="wall_room1_1">
          <polygon points="1200.0,0.0 1200.0,200.0 1205.0,200.0 1205.0,0.0" class="wall"/>
        </g>
        <g id="wall_room1_3">
          <polygon points="0.0,200.0 0.0,0.0 -5.0,0.0 -5.0,200.0" class="wall"/>
        </g>
        <g id="wall_room2_1">
          <polygon points="0.0,205.0 0.0,405.0 -5.0,405.0 -5.0,205.0" class="wall"/>
        </g>
        <g id="wall_room2_2">
          <polygon points="0.0,405.0 1200.0,405.0 1200.0,410.0 0.0,410.0" class="wall"/>
        </g>
        <g id="wall_room2_3">
          <polygon points="1200.0,405.0 1200.0,205.0 1205.0,205.0 1205.0,405.0" class="wall"/>
        </g>
        <g id="wall_room1_wall_room2_0">
          <polygon points="1200.0,205.0 0.0,205.0 0.0,200.0 1200.0,200.0" class="wall"/>
        </g>
        <g id="wall_corner_room1_0_room1_1">
          <polygon points="1200.0,0.0 1205.0,0.0 1205.0,-5.0 1200.0,-5.0" class="wall"/>
        </g>
        <g id="wall_corner_room1_0_room1_3">
          <polygon points="0.0,0.0 -5.0,0.0 -5.0,-5.0 0.0,-5.0" class="wall"/>
        </g>
        <g id="wall_corner_room1_1_room1_wall_room2_0">
          <polygon points="1200.0,200.0 1200.0,205.0 1205.0,205.0 1205.0,200.0" class="wall"/>
        </g>
        <g id="wall_corner_room1_3_room1_wall_room2_0">
          <polygon points="0.0,200.0 0.0,205.0 -5.0,205.0 -5.0,200.0" class="wall"/>
        </g>
        <g id="wall_corner_room2_1_room2_2">
          <polygon points="0.0,405.0 0.0,410.0 -5.0,410.0 -5.0,405.0" class="wall"/>
        </g>
        <g id="wall_corner_room2_2_room2_3">
          <polygon points="1200.0,405.0 1205.0,405.0 1205.0,410.0 1200.0,410.0" class="wall"/>
        </g>
        <g id="symbol_0">
          <polygon points="1190.0,200.0 1010.0,200.0 1010.0,205.0 1190.0,205.0" fill="none"/>
          <path d="M 1180.0,200.0 L 1100.0,200.0 A 80.0,80.0 0 0,0 1180.0,120.0 Z"/>
          <path d="M 1020.0,200.0 L 1100.0,200.0 A 80.0,80.0 0 0,0 1020.0,120.0 Z"/>
        </g>
        <g id="symbol_1">
          <polygon points="995.0,200.0 895.0,200.0 895.0,205.0 995.0,205.0" fill="none"/>
          <path d="M 985.0,200.0 L 905.0,200.0 A 80.0,80.0 0 0,0 985.0,280.0 Z"/>
        </g>
        <g id="symbol_2">
          <polygon points="890.0,200.0 790.0,200.0 790.0,205.0 890.0,205.0" fill="none"/>
          <path d="M 800.0,200.0 L 880.0,200.0 A 80.0,80.0 0 0,0 800.0,280.0 Z"/>
        </g>
        <g id="symbol_3">
          <polygon points="785.0,200.0 685.0,200.0 685.0,205.0 785.0,205.0" fill="none"/>
          <path d="M 695.0,200.0 L 775.0,200.0 A 80.0,80.0 0 0,0 695.0,120.0 Z"/>
        </g>
        <g id="symbol_4">
          <polygon points="590.0,205.0 410.0,205.0 410.0,200.0 590.0,200.0" fill="none"/>
          <path d="M 580.0,205.0 L 660.0,205.0 A 80.0,80.0 0 0,0 580.0,125.0 Z"/>
          <path d="M 580.0,205.0 L 500.0,205.0 A 80.0,80.0 0 0,0 580.0,125.0 Z"/>
        </g>
        <g id="symbol_5">
          <polygon points="395.0,205.0 295.0,205.0 295.0,200.0 395.0,200.0" fill="none"/>
          <path d="M 385.0,205.0 L 465.0,205.0 A 80.0,80.0 0 0,0 385.0,285.0 Z"/>
        </g>
        <g id="symbol_6">
          <polygon points="290.0,205.0 190.0,205.0 190.0,200.0 290.0,200.0" fill="none"/>
          <path d="M 360.0,205.0 L 280.0,205.0 A 80.0,80.0 0 0,0 360.0,285.0 Z"/>
        </g>
        <g id="symbol_7">
          <polygon points="185.0,205.0 85.0,205.0 85.0,200.0 185.0,200.0" fill="none"/>
          <path d="M 255.0,205.0 L 175.0,205.0 A 80.0,80.0 0 0,0 255.0,125.0 Z"/>
        </g>
      </g>
    </g>
  </g>
</svg>
